<svg width="21" height="20" viewBox="0 0 21 20" fill="none" xmlns="http://www.w3.org/2000/svg">
<g clip-path="url(#clip0_584_805)">
<path d="M10.7806 13.5157C12.662 13.5157 14.1871 12.0668 14.1871 10.2796C14.1871 8.49231 12.662 7.04346 10.7806 7.04346C8.89919 7.04346 7.37402 8.49231 7.37402 10.2796C7.37402 12.0668 8.89919 13.5157 10.7806 13.5157Z" stroke="white" stroke-width="2" stroke-linecap="round" stroke-linejoin="round"/>
<path d="M14.1871 7.04361V11.0887C14.1871 11.7324 14.4563 12.3498 14.9354 12.805C15.4146 13.2601 16.0644 13.5158 16.742 13.5158C17.4196 13.5158 18.0695 13.2601 18.5486 12.805C19.0278 12.3498 19.2969 11.7324 19.2969 11.0887V10.2797C19.2968 8.45376 18.6465 6.68155 17.4517 5.25123C16.2569 3.82091 14.5878 2.81662 12.716 2.40165C10.8442 1.98667 8.87964 2.18543 7.1418 2.96559C5.40396 3.74576 3.99504 5.06145 3.14413 6.69874C2.29322 8.33602 2.05038 10.1986 2.45508 11.9836C2.85978 13.7686 3.88822 15.3711 5.37319 16.5305C6.85815 17.6898 8.71229 18.3379 10.6341 18.3693C12.556 18.4007 14.4325 17.8136 15.9585 16.7034" stroke="white" stroke-width="2" stroke-linecap="round" stroke-linejoin="round"/>
</g>
<defs>
<clipPath id="clip0_584_805">
<rect x="0.561035" y="0.571289" width="20.4393" height="19.4167" rx="9.70833" fill="white"/>
</clipPath>
</defs>
</svg>
