<svg width="24" height="25" viewBox="0 0 24 25" fill="none" xmlns="http://www.w3.org/2000/svg">
<g clip-path="url(#clip0_584_701)">
<path d="M5.96779 24.2301C5.14521 24.1024 4.35406 23.8208 3.63579 23.4001C2.01579 22.4711 0.806789 20.8071 0.418789 18.9741C0.267789 18.2571 0.248789 17.3511 0.268789 11.7671C0.287789 5.75811 0.273789 6.06811 0.559789 5.07811C0.701789 4.58511 1.09679 3.73811 1.38279 3.31111C2.43779 1.74111 3.98979 0.733111 5.91279 0.368111C6.29679 0.295111 6.85279 0.288111 11.9688 0.288111C18.2198 0.288111 18.0138 0.279111 19.0348 0.602111C20.0261 0.922839 20.9306 1.46686 21.6785 2.19225C22.4265 2.91765 22.9979 3.80506 23.3488 4.78611C23.6788 5.72311 23.6948 5.87311 23.7178 8.34111L23.7378 10.5711L23.3468 10.8391C22.7888 11.2201 22.0568 11.8991 21.0308 12.9891C19.8488 14.2451 18.6548 15.4091 18.0488 15.8961C16.7398 16.9471 15.5408 17.5471 14.3228 17.7601C13.6888 17.8701 12.6408 17.8271 12.0208 17.6651C11.4678 17.5211 11.5038 17.4971 11.2948 18.1291C11.125 18.6292 11.0181 19.1486 10.9768 19.6751L10.9458 20.0821L10.7998 20.0521C9.58479 19.8111 8.38079 18.7671 7.91579 17.5521C7.75857 17.1641 7.67057 16.7515 7.65579 16.3331L7.63979 15.9931L7.33079 15.7091C6.68679 15.1191 6.26779 14.3971 6.13579 13.6481C5.92379 12.4551 6.47579 11.1061 7.67379 9.89211C8.93779 8.60911 10.8008 7.60211 12.6268 7.21211C13.2848 7.07211 14.4448 7.03511 15.0298 7.13711C16.1678 7.33511 17.0968 7.91011 17.6748 8.77611C17.8568 9.04711 17.8698 9.08611 17.8518 9.33111C17.8472 9.51119 17.7828 9.68463 17.6688 9.82411C17.2038 10.4751 15.8208 11.1721 14.3328 11.5041C11.7078 12.0891 10.0388 11.3621 10.2998 9.74511C10.3258 9.58211 10.3398 9.44111 10.3308 9.43211C10.2988 9.40011 10.0378 9.53611 9.75579 9.73211C9.27679 10.0661 8.85279 10.7161 8.70579 11.3391C8.66979 11.4951 8.65579 11.7451 8.67179 11.9891C8.69179 12.3201 8.72479 12.4431 8.86379 12.7251C8.95579 12.9111 9.13879 13.1751 9.27179 13.3141L9.51179 13.5651L9.41579 13.6871C9.13269 14.0581 8.90467 14.468 8.73879 14.9041C8.55062 15.4904 8.51449 16.115 8.63379 16.7191C8.73679 17.1801 9.05479 17.8141 9.37279 18.1871C9.61479 18.4721 10.1698 18.9511 10.2588 18.9511C10.2828 18.9511 10.3028 18.9031 10.3028 18.8451C10.3038 18.6151 10.4868 17.8721 10.6288 17.5181C11.0518 16.4601 11.9798 15.5581 13.4488 14.7781C13.6938 14.6481 14.4008 14.3081 15.0208 14.0211C16.3808 13.3911 17.1238 13.0061 17.5318 12.7161C18.7078 11.8831 19.4348 10.6511 19.6718 9.09111C19.7578 8.52111 19.7578 7.45711 19.6718 6.88411C19.3038 4.44611 17.4768 2.78811 14.8538 2.51411C11.9288 2.20711 8.20579 4.46711 5.91179 7.94111C4.79579 9.63111 4.04179 11.5061 3.72479 13.3841C3.60179 14.1121 3.55579 15.4641 3.63179 16.1341C3.82479 17.8381 4.45379 19.2121 5.53479 20.2901C6.07612 20.8343 6.70914 21.2787 7.40479 21.6031C9.77279 22.7331 12.3948 22.7581 14.6998 21.6741C15.6958 21.2051 16.6738 20.4781 17.7228 19.4241C18.7428 18.3991 19.4328 17.5441 21.3148 14.9661C22.3548 13.5431 23.1788 12.5981 23.5868 12.3611L23.7368 12.2751L23.7178 15.3661C23.6998 18.3591 23.6958 18.4731 23.5948 18.9271C22.9948 21.6051 21.0548 23.5631 18.3998 24.1691L17.9318 24.2761L12.1568 24.2861C7.42279 24.2941 6.30779 24.2841 5.96779 24.2301Z" fill="white"/>
</g>
<defs>
<clipPath id="clip0_584_701">
<rect width="24" height="24" fill="white" transform="translate(0 0.288086)"/>
</clipPath>
</defs>
</svg>
