<svg width="20" height="21" viewBox="0 0 20 21" fill="none" xmlns="http://www.w3.org/2000/svg">
<g clip-path="url(#clip0_584_681)">
<path d="M14.1665 1.95471H5.83317C3.53198 1.95471 1.6665 3.82019 1.6665 6.12138V14.4547C1.6665 16.7559 3.53198 18.6214 5.83317 18.6214H14.1665C16.4677 18.6214 18.3332 16.7559 18.3332 14.4547V6.12138C18.3332 3.82019 16.4677 1.95471 14.1665 1.95471Z" stroke="white" stroke-width="2" stroke-linecap="round" stroke-linejoin="round"/>
<path d="M13.3333 9.76309C13.4361 10.4566 13.3176 11.1649 12.9947 11.7873C12.6718 12.4096 12.1609 12.9143 11.5346 13.2295C10.9083 13.5447 10.1986 13.6544 9.50641 13.543C8.81419 13.4317 8.17472 13.1048 7.67895 12.6091C7.18318 12.1133 6.85636 11.4738 6.74497 10.7816C6.63359 10.0894 6.74331 9.37967 7.05852 8.7534C7.37374 8.12714 7.87841 7.61621 8.50074 7.29329C9.12307 6.97038 9.83138 6.85192 10.5249 6.95476C11.2324 7.05966 11.8873 7.38931 12.393 7.89502C12.8987 8.40072 13.2283 9.05566 13.3333 9.76309Z" stroke="white" stroke-width="2" stroke-linecap="round" stroke-linejoin="round"/>
<path d="M14.5835 5.70471H14.5935" stroke="white" stroke-width="2" stroke-linecap="round" stroke-linejoin="round"/>
</g>
<defs>
<clipPath id="clip0_584_681">
<rect width="20" height="20" fill="white" transform="translate(0 0.288086)"/>
</clipPath>
</defs>
</svg>
