<svg width="24" height="25" viewBox="0 0 24 25" fill="none" xmlns="http://www.w3.org/2000/svg">
<path d="M17 2.28809H7C4.23858 2.28809 2 4.52666 2 7.28809V17.2881C2 20.0495 4.23858 22.2881 7 22.2881H17C19.7614 22.2881 22 20.0495 22 17.2881V7.28809C22 4.52666 19.7614 2.28809 17 2.28809Z" stroke="white" stroke-width="2" stroke-linecap="round" stroke-linejoin="round"/>
<path d="M16.0002 11.6581C16.1236 12.4904 15.9815 13.3404 15.594 14.0872C15.2065 14.834 14.5933 15.4396 13.8418 15.8178C13.0903 16.1961 12.2386 16.3277 11.408 16.1941C10.5773 16.0604 9.80996 15.6682 9.21503 15.0733C8.62011 14.4784 8.22793 13.711 8.09426 12.8804C7.9606 12.0497 8.09226 11.198 8.47052 10.4465C8.84878 9.695 9.45438 9.08188 10.2012 8.69438C10.948 8.30689 11.7979 8.16473 12.6302 8.28814C13.4791 8.41403 14.265 8.80961 14.8719 9.41645C15.4787 10.0233 15.8743 10.8092 16.0002 11.6581Z" stroke="white" stroke-width="2" stroke-linecap="round" stroke-linejoin="round"/>
<path d="M17.5 6.78809H17.51" stroke="white" stroke-width="2" stroke-linecap="round" stroke-linejoin="round"/>
</svg>
