<svg width="22" height="20" viewBox="0 0 22 20" fill="none" xmlns="http://www.w3.org/2000/svg">
<g clip-path="url(#clip0_584_781)">
<path d="M18.7313 8.58862C18.7313 14.2518 11.0666 19.106 11.0666 19.106C11.0666 19.106 3.40186 14.2518 3.40186 8.58862C3.40186 6.65752 4.20939 4.8055 5.64681 3.44C7.08423 2.0745 9.03379 1.30737 11.0666 1.30737C13.0994 1.30737 15.049 2.0745 16.4864 3.44C17.9238 4.8055 18.7313 6.65752 18.7313 8.58862Z" stroke="white" stroke-width="2" stroke-linecap="round" stroke-linejoin="round"/>
<path d="M11.0666 11.0155C12.4777 11.0155 13.6216 9.9289 13.6216 8.58846C13.6216 7.24802 12.4777 6.16138 11.0666 6.16138C9.65559 6.16138 8.51172 7.24802 8.51172 8.58846C8.51172 9.9289 9.65559 11.0155 11.0666 11.0155Z" stroke="white" stroke-width="2" stroke-linecap="round" stroke-linejoin="round"/>
</g>
<defs>
<clipPath id="clip0_584_781">
<rect x="0.847168" y="0.498291" width="20.4393" height="19.4167" rx="9.70833" fill="white"/>
</clipPath>
</defs>
</svg>
