<svg width="25" height="25" viewBox="0 0 25 25" fill="none" xmlns="http://www.w3.org/2000/svg">
<path d="M14.888 5.81089C15.8232 5.993 16.6827 6.44951 17.3565 7.12198C18.0302 7.79445 18.4876 8.6523 18.6701 9.58572M14.888 1.98828C16.831 2.20372 18.6429 3.07216 20.0261 4.451C21.4093 5.82985 22.2817 7.63715 22.5 9.57616M21.5425 17.2023V20.0692C21.5436 20.3354 21.489 20.5988 21.3821 20.8427C21.2753 21.0865 21.1186 21.3054 20.9221 21.4854C20.7256 21.6653 20.4937 21.8023 20.2411 21.8875C19.9885 21.9728 19.7208 22.0045 19.4552 21.9805C16.5089 21.661 13.6787 20.6561 11.1921 19.0467C8.87869 17.5794 6.9173 15.6218 5.44724 13.3128C3.82908 10.8197 2.82206 7.98117 2.50777 5.02725C2.48384 4.76299 2.51531 4.49664 2.60017 4.24517C2.68503 3.99371 2.82141 3.76263 3.00065 3.56666C3.17989 3.37068 3.39804 3.21411 3.64123 3.10689C3.88442 2.99968 4.14731 2.94418 4.41316 2.94393H7.28561C7.75028 2.93937 8.20076 3.1036 8.55309 3.40602C8.90541 3.70844 9.13554 4.12841 9.20057 4.58766C9.32181 5.50514 9.54665 6.406 9.87081 7.27304C9.99963 7.61509 10.0275 7.98683 9.95115 8.34421C9.87478 8.70159 9.69737 9.02963 9.43994 9.28946L8.22394 10.5031C9.58697 12.8957 11.5717 14.8766 13.9688 16.2371L15.1848 15.0234C15.4452 14.7664 15.7738 14.5894 16.1319 14.5131C16.49 14.4369 16.8624 14.4648 17.2051 14.5933C18.0738 14.9169 18.9764 15.1413 19.8956 15.2623C20.3608 15.3278 20.7855 15.5616 21.0892 15.9193C21.3928 16.277 21.5542 16.7336 21.5425 17.2023Z" stroke="white" stroke-width="2" stroke-linecap="round" stroke-linejoin="round"/>
</svg>
