<svg width="24" height="25" viewBox="0 0 24 25" fill="none" xmlns="http://www.w3.org/2000/svg">
<path d="M12 1.24805C5.91267 1.24805 0.960032 6.20069 0.960032 12.288C0.960032 14.1888 1.45107 16.058 2.38227 17.7072L0.977792 22.7184C0.931712 22.8831 0.976352 23.0597 1.09539 23.1821C1.18707 23.2767 1.31187 23.328 1.44003 23.328C1.47843 23.328 1.51731 23.3232 1.55523 23.3141L6.78531 22.0186C8.38227 22.8759 10.1808 23.328 12 23.328C18.0874 23.328 23.04 18.3754 23.04 12.288C23.04 6.20069 18.0874 1.24805 12 1.24805ZM17.5536 16.1837C17.3175 16.8375 16.1847 17.4341 15.6403 17.5143C15.1517 17.5858 14.5335 17.6165 13.8547 17.4034C13.4434 17.2738 12.9154 17.102 12.2391 16.8135C9.39603 15.601 7.53939 12.7743 7.39731 12.5876C7.25571 12.4008 6.24003 11.0703 6.24003 9.69317C6.24003 8.31605 6.97203 7.63877 7.23219 7.35845C7.49235 7.07813 7.79907 7.00805 7.98819 7.00805C8.17731 7.00805 8.36595 7.01045 8.53155 7.01813C8.70579 7.02677 8.93955 6.95237 9.16947 7.49861C9.40563 8.05925 9.97251 9.43637 10.0426 9.57701C10.1136 9.71717 10.1607 9.88085 10.0666 10.0676C9.97251 10.2543 9.92547 10.3709 9.78339 10.5346C9.64131 10.6983 9.48579 10.8994 9.35811 11.0252C9.21603 11.1648 9.06867 11.316 9.23379 11.5964C9.39891 11.8767 9.96771 12.793 10.8106 13.5351C11.893 14.4884 12.8064 14.784 13.0896 14.9242C13.3728 15.0644 13.5384 15.0408 13.7035 14.8541C13.8687 14.6669 14.412 14.0367 14.6007 13.7568C14.7893 13.477 14.9784 13.5231 15.2386 13.6167C15.4987 13.7098 16.8922 14.3866 17.1754 14.5268C17.4586 14.6669 17.6477 14.737 17.7188 14.8536C17.7898 14.9698 17.7898 15.5304 17.5536 16.1837Z" fill="white"/>
</svg>
