<?xml version="1.0" encoding="UTF-8" standalone="no"?>
<svg
   version="1.1"
   width="419.52759pt"
   height="595.27557pt"
   id="svg125"
   viewBox="0 0 419.52759 595.27557"
   sodipodi:docname="لوگو دانشگاه.cdr"
   xmlns:inkscape="http://www.inkscape.org/namespaces/inkscape"
   xmlns:sodipodi="http://sodipodi.sourceforge.net/DTD/sodipodi-0.dtd"
   xmlns:xlink="http://www.w3.org/1999/xlink"
   xmlns="http://www.w3.org/2000/svg"
   xmlns:svg="http://www.w3.org/2000/svg">
  <defs
     id="defs129" />
  <sodipodi:namedview
     id="namedview127"
     pagecolor="#ffffff"
     bordercolor="#000000"
     borderopacity="0.25"
     inkscape:showpageshadow="2"
     inkscape:pageopacity="0.0"
     inkscape:pagecheckerboard="0"
     inkscape:deskcolor="#d1d1d1"
     inkscape:document-units="pt" />
  <g
     id="Layer1000">
    <defs
       id="defs8">
      <linearGradient
         id="grad1">
        <stop
           offset="0%"
           stop-color="#509ed1"
           stop-opacity="1.0000"
           id="stop2" />
        <stop
           offset="100%"
           stop-color="#b8d0e9"
           stop-opacity="1.0000"
           id="stop4" />
      </linearGradient>
      <linearGradient
         xlink:href="#grad1"
         id="grad2"
         x1="0"
         y1="0"
         x2="0"
         y2="1"
         gradientTransform="rotate(178,0.5,0.5)"
         gradientUnits="objectBoundingBox" />
    </defs>
    <path
       d="m 231.6318,246.3015 c 6.7324,0 12.8736,2.4356 17.5278,6.4403 l -1.341,0.3839 -4.8096,3.0338 -5.0891,4.6615 -2.7048,3.5765 -3.0339,5.3274 -6.1084,-0.4686 -4.8179,1.2331 -4.4723,3.1738 -2.1376,2.3841 -1.8417,3.0912 -0.5955,2.8064 -0.004,0.0218 0.0806,0.1056 2.3532,-1.4893 3.1183,-1.4725 3.3072,-0.6421 3.8339,0.8477 2.2378,1.3164 1.6455,1.958 0.9381,2.2048 0.1726,1.8021 -0.2056,2.5011 -1.662,3.6037 -3.0968,3.0689 -0.4488,0.2719 c -11.0585,-3.0015 -19.1643,-12.7873 -19.1643,-24.3965 0,-13.9975 11.7834,-25.345 26.3188,-25.345 z m 5.3641,50.1622 c -0.3296,0.0658 -0.6623,0.1245 -0.9963,0.1783 l 0.6379,-0.3694 z"
       style="fill:url(#grad2);stroke:#ffffff;stroke-width:0.458;stroke-linecap:round;stroke-linejoin:round;stroke-dasharray:none"
       id="path10" />
    <path
       d="m 226.1482,248.1674 c -3.4139,9.2683 -1.733,38.5097 8.5432,48.9675"
       style="fill:none;stroke:#ffffff;stroke-width:0.4578;stroke-linecap:round;stroke-linejoin:round;stroke-dasharray:none"
       id="path12" />
    <path
       d="m 226.1879,248.1192 c 0,0 5.7379,-1.2291 14.3558,1.6964 8.6179,2.9255 10.4062,9.6975 10.4062,9.6975"
       style="fill:none;stroke:#ffffff;stroke-width:0.4578;stroke-linecap:round;stroke-linejoin:round;stroke-dasharray:none"
       id="path14" />
    <path
       d="m 245.1519,260.7028 c 0,0 -3.065,-5.6896 -9.5171,-9.3465 -6.4521,-3.6568 -8.6121,-2.9322 -9.4692,-3.2277"
       style="fill:none;stroke:#ffffff;stroke-width:0.4578;stroke-linecap:round;stroke-linejoin:round;stroke-dasharray:none"
       id="path16" />
    <path
       d="m 237.0709,266.52 c 0,0 -2.8722,-7.5624 -5.8588,-12.2534 -2.9865,-4.6909 -5.0132,-6.1273 -5.0132,-6.1273"
       style="fill:none;stroke:#ffffff;stroke-width:0.4578;stroke-linecap:round;stroke-linejoin:round;stroke-dasharray:none"
       id="path18" />
    <path
       d="m 226.1311,248.1439 c -3.8866,2.8529 -7.249,7.8649 -7.249,7.8649 -6.6815,11.9192 -6.8445,31.6682 5.9009,39.849"
       style="fill:none;stroke:#ffffff;stroke-width:0.4578;stroke-linecap:round;stroke-linejoin:round;stroke-dasharray:none"
       id="path20" />
    <path
       d="m 226.1656,248.1286 c 0,0 -10.7486,3.6227 -16.1626,13.7176 -5.414,10.0948 -2.8563,19.7777 0.5124,24.931"
       style="fill:none;stroke:#ffffff;stroke-width:0.4578;stroke-linecap:round;stroke-linejoin:round;stroke-dasharray:none"
       id="path22" />
    <path
       d="m 226.1473,248.1369 c -7.9391,1.7434 -13.1956,5.0895 -15.8797,8.7049"
       style="fill:none;stroke:#ffffff;stroke-width:0.4578;stroke-linecap:round;stroke-linejoin:round;stroke-dasharray:none"
       id="path24" />
    <path
       d="m 226.0899,248.0975 c 0,0 -2.811,0.1578 -4.1211,0.365 -1.31,0.2073 -2.298,0.6016 -2.298,0.6016"
       style="fill:none;stroke:#ffffff;stroke-width:0.4578;stroke-linecap:round;stroke-linejoin:round;stroke-dasharray:none"
       id="path26" />
    <path
       d="m 226.1656,248.1286 c 0,0 -0.818,-0.398 -1.2132,-0.5863 -0.3953,-0.1883 -0.5583,-0.2701 -0.5583,-0.2701"
       style="fill:none;stroke:#ffffff;stroke-width:0.4578;stroke-linecap:round;stroke-linejoin:round;stroke-dasharray:none"
       id="path28" />
    <path
       d="m 226.1879,248.1192 c 0,0 0.5201,-0.8592 0.6956,-1.1162 0.1755,-0.257 0.2811,-0.3379 0.2811,-0.3379"
       style="fill:none;stroke:#ffffff;stroke-width:0.4578;stroke-linecap:round;stroke-linejoin:round;stroke-dasharray:none"
       id="path30" />
    <path
       d="m 226.1311,248.1439 c 0,0 2.4268,-1.0594 3.1853,-1.3729 0.7585,-0.3134 1.5292,-0.4584 1.5292,-0.4584"
       style="fill:none;stroke:#ffffff;stroke-width:0.4578;stroke-linecap:round;stroke-linejoin:round;stroke-dasharray:none"
       id="path32" />
    <path
       d="m 226.1559,248.1192 c 3.0607,-1.0768 9.2781,-1.2145 12.5531,-0.9407"
       style="fill:none;stroke:#ffffff;stroke-width:0.4578;stroke-linecap:round;stroke-linejoin:round;stroke-dasharray:none"
       id="path34" />
    <path
       d="m 247.8769,260.8457 c 0,0 -19.6721,9.5 -34.229,7.6293 0,0 -7.078,-0.9935 -7.259,-4.0241"
       style="fill:none;stroke:#ffffff;stroke-width:0.4578;stroke-linecap:round;stroke-linejoin:round;stroke-dasharray:none"
       id="path36" />
    <path
       d="m 241.4444,278.5066 c 0,0 -16.7045,4.452 -25.884,3.3157 -9.1795,-1.1364 -9.3712,-3.6657 -9.3712,-3.6657"
       style="fill:none;stroke:#ffffff;stroke-width:0.4578;stroke-linecap:round;stroke-linejoin:round;stroke-dasharray:none"
       id="path38" />
    <path
       d="m 239.8307,247.5554 c 0,0 2.3795,4.2792 -12.0764,8.1091 -15.5788,2.7946 -13.8518,-2.4124 -14.0484,-2.6334"
       style="fill:none;stroke:#ffffff;stroke-width:0.4578;stroke-linecap:round;stroke-linejoin:round;stroke-dasharray:none"
       id="path40" />
    <path
       d="m 212.578,281.7147 0.005,-0.0217 0.5955,-2.8065 1.8417,-3.0913 2.1374,-2.384 4.4724,-3.1737 4.8179,-1.2331 6.1084,0.4685 3.0339,-5.3273 2.7049,-3.5766 5.0889,-4.6613 4.8097,-3.0339 7.0921,-2.0303 5.3264,-0.0571 4.5899,1.1366 4.5399,2.1518 -1.4373,0.2576 -4.3036,-0.4218 -2.8743,0.4933 -4.2774,1.6332 -4.0026,2.8117 -4.5286,5.6609 -1.8429,4.8149 -1.205,6.0882 0.1688,5.458 -1.0479,4.6357 -0.9657,3.7819 -2.0895,2.6097 -2.2269,2.4399 -2.0966,1.6827 -4.8444,2.8047 -5.1815,1.8096 -8.616,1.2926 -6.6944,-0.1431 2.8825,-1.0799 6.7872,-2.7894 3.9553,-2.396 3.0968,-3.069 1.6619,-3.6037 0.2057,-2.501 -0.1727,-1.802 -0.938,-2.2049 -1.6454,-1.958 -2.2379,-1.3164 -3.8339,-0.8476 -3.3073,0.6418 -3.1182,1.4727 -2.3532,1.4892 z"
       style="fill:#ffffff;fill-rule:evenodd"
       id="path42" />
    <path
       d="m 263.0555,304.3558 0.7854,0.9788 -1.3491,1.8607 h -17.7675 l -8.6613,8.6462 -1.2285,-1.2285 -3.1801,3.2283 -3.2365,-3.2307 -1.2356,1.1971 -8.6319,-8.6366 -17.7456,0.0162 -1.3313,-1.7675 c 0,0 -0.0257,-0.0226 -0.0269,-0.0821 -10e-4,-0.0595 0.0452,-0.0928 0.0452,-0.0928 l 0.7169,-0.8797 0.004,-17.9826 -12.9462,-12.9457 c 0,0 -0.0293,-0.0192 -0.0302,-0.0595 -0.001,-0.0403 0.0219,-0.0598 0.0219,-0.0598 l 12.9115,-12.9023 c 0,0 0.0372,-0.0446 0.0366,-0.1193 -6e-4,-0.0748 -0.0427,-19.1023 -0.0427,-19.1023 l 1.8908,-0.008 16.6034,0.0134 12.8968,-12.9322 c 0,0 0.0479,-0.0436 0.0894,-0.0467 0.0415,-0.003 0.0791,0.0528 0.0791,0.0528 l 12.9554,12.9603 18.3804,-0.0293 0.0433,5.121 -3.4148,0.0241 0.003,-0.6785 -16.0445,0.006 -11.9939,-11.9186 -11.9455,11.9186 -14.9683,0.008 -0.0189,15.7876 -2.628,2.6362 -9.228,9.2063 c 0,0 -0.0208,0.0241 -0.0229,0.0525 -0.002,0.0284 0.0241,0.0638 0.0241,0.0638 l 11.8581,11.8578 0.0373,16.5207 h 5.2141 c 0,0 5.3178,-1.2605 8.9832,-3.0876 3.6654,-1.827 10.5207,-5.0883 10.6809,-11.7989 0.1603,-6.7106 -6.7982,-8.2828 -9.8113,-7.8607 -3.0131,0.4222 -7.5402,3.2317 -7.9769,4.076 0,0 -0.1942,-0.1313 -0.2024,-0.6557 -0.008,-0.5243 0.6297,-7.4782 8.6011,-11.8682 0,0 4.1394,-3.0421 11.7644,-1.2129 0,0 3.8898,-10.3589 15.2885,-16.4242 11.3988,-6.0654 22.1432,0.5387 23.568,1.983 0,0 -0.8089,0.2503 -3.2543,-0.0577 -2.4454,-0.308 -4.8906,-0.4041 -6.9316,0.1349 -2.041,0.539 -11.476,3.7741 -14.6915,16.3089 0,0 -0.8277,5.0831 -0.7123,7.1241 0.1153,2.041 -0.058,5.4107 -1.4636,9.3193 -1.4055,3.9087 -4.8331,7.8945 -10.6671,11.1293 0,0 -4.7395,2.4701 -11.8633,3.4838 l 0.5558,0.6302 c 0,0 -0.0284,-0.1587 0.1138,-0.3021 0.1422,-0.1435 0.279,-0.0666 0.3751,0.0216 0.0962,0.0883 0.3254,0.2833 0.5433,0.3822 0.2179,0.0989 1.1763,0.3049 1.7117,0.2692 0,0 0.3937,0.5277 0.8058,0.7691 0.412,0.2415 2.8108,1.749 3.6727,2.5526 0.8619,0.8037 1.3619,1.7324 1.4492,2.2654 0.0873,0.5329 0.0583,1.0991 0.0583,1.0991 l 0.7536,-0.6163 c 0,0 -0.9242,1.0951 -0.7661,1.166 0.1581,0.0708 1.045,-0.9203 1.045,-0.9203 0,0 0.9246,1.0079 1.0494,0.8662 0.1248,-0.1416 -0.7994,-1.1867 -0.7994,-1.1867 0,0 0.7164,0.6538 0.7579,0.6038 0.0415,-0.0501 -0.1667,-0.9203 0.4746,-2.0279 0.6413,-1.1077 2.0782,-2.1698 2.7818,-2.6112 0.7035,-0.4413 1.8322,-1.0619 2.2235,-1.4116 0.3913,-0.3498 0.5662,-0.5955 0.5662,-0.5955 0,0 0.5247,0.05 0.9453,-0.0165 0.4206,-0.0665 0.8244,-0.2082 1.0869,-0.3956 0.2624,-0.1874 0.4206,-0.3458 0.4206,-0.3458 l 0.3497,0.304 2.0197,-2.0486 14.8923,-0.009 10e-4,-15.5601 11.8646,-11.943 -3.1499,-3.1728 3.0766,-3.0742 6.1102,6.0715 -13.2224,13.2551 z m -50.2268,-2.5773 7.7392,-0.032 c 0,0 4.7825,-0.6883 7.7498,-1.7612 2.9674,-1.0728 7.2747,-2.8022 10.2155,-5.711 2.9408,-2.9087 4.115,-4.9903 4.9104,-7.2587 0.7954,-2.2684 1.2865,-5.0383 1.3023,-6.4261 0.0159,-1.3879 -0.005,-2.946 0,-3.3892 0.005,-0.4432 0.3788,-3.5653 0.5391,-4.5048 0.1602,-0.9394 0.4917,-2.8348 1.002,-4.3338 0.5103,-1.4989 1.4944,-3.9773 2.6221,-5.5184 1.1278,-1.541 2.6176,-3.2027 3.8663,-4.2886 1.2486,-1.086 3.6062,-2.8035 5.8248,-3.648 2.2187,-0.8446 3.4438,-1.0069 5.1332,-1.1324 1.6894,-0.1254 4.1495,0.427 4.1495,0.427 0,0 -3.235,-1.7495 -6.5861,-2.2974 -3.351,-0.5479 -6.3211,-0.2597 -7.7462,0 -1.425,0.2598 -4.256,1.0951 -6.2286,2.172 -1.9726,1.0768 -3.8479,2.3389 -4.5811,2.9286 -0.7331,0.5896 -3.778,3.4209 -4.3255,4.1262 -0.5476,0.7054 -2.4088,2.7382 -3.1514,3.9868 -0.7426,1.2487 -1.7264,2.7104 -1.9632,3.2256 -0.2369,0.5152 -0.9703,2.0749 -0.9703,2.0749 0,0 -2.2739,-0.6868 -4.3998,-0.6776 -2.1258,0.009 -4.0521,0.2832 -6.5628,1.3552 -2.5108,1.0719 -4.0659,2.678 -4.929,3.4902 -0.8632,0.8122 -2.5108,3.365 -2.9564,4.205 -0.4456,0.84 -0.9422,2.6038 -0.9422,2.6038 0,0 2.0144,-1.3832 2.7848,-1.7684 0.7704,-0.3852 3.1636,-1.4178 4.9437,-1.4703 1.78,-0.0525 4.0808,0.428 4.7626,0.8397 0.6819,0.4117 1.614,0.8558 1.9128,1.0979 0.2989,0.242 1.6427,1.6506 2.1473,2.5467 0.5045,0.8962 1.3402,3.2415 1.0051,5.7519 -0.3352,2.5105 -0.5821,2.3499 -1.3851,3.8159 -0.8031,1.466 -1.6897,2.4836 -3.4734,3.8375 -1.7837,1.354 -3.6978,2.2227 -5.6027,3.2964 -1.9048,1.0738 -6.1755,2.197 -6.4755,2.287 -0.3001,0.0901 -0.4457,0.0623 -0.4365,0.1084 0.009,0.0461 0.1053,0.0412 0.1053,0.0412 z"
       style="fill:#1b1918;fill-rule:evenodd"
       id="path44" />
    <path
       d="m 262.1756,304.0072 1.0786,1.3152 c 0,0 0.0131,0.036 0.0156,0.0778 0.002,0.0419 -1.0021,1.3439 -1.0021,1.3439 l -17.6484,-0.01 c 0,0 -0.0702,-0.005 -0.1178,0.0287 -0.0477,0.0332 -0.1511,0.148 -0.1511,0.148 l -8.2926,8.3172 -0.9053,-0.9205 9.5339,-9.5174 15.7631,0.007 c 0,0 0.1203,-0.002 0.2393,-0.0567 0.1191,-0.0553 0.4347,-0.2186 0.4347,-0.2186 z"
       style="fill:#ffffff;fill-rule:evenodd"
       id="path46" />
    <g
       id="Layer1001">
      <path
         d="m 231.3105,338.8059 c 0.0797,0.3422 0.3144,0.5668 0.3877,0.8412 0.6244,-0.419 1.2752,-1.6759 1.3564,-2.653 l 0.1242,0.3285 c 0.047,0.1623 0.05,0.235 0.0967,0.4209 0.1438,0.5735 0.7161,1.5792 1.1999,1.9036 0.0451,-0.0943 0.0668,-0.1697 0.1193,-0.2689 0.3953,-0.7444 0.3391,-0.4358 -0.1721,-1.2312 -0.276,-0.4292 -0.6361,-1.2124 -0.7237,-1.7334 l -0.1923,-1.4251 c -0.8665,0 -0.8961,-0.2106 -0.9044,0.5821 -0.009,0.8522 -0.4288,2.1552 -0.9526,2.7986 -0.1251,0.1535 -0.2365,0.2835 -0.3391,0.4367 z"
         style="fill:#1b1918;fill-rule:evenodd"
         id="path48" />
      <path
         d="m 230.2126,335.1827 c 0.0196,0.238 0.0644,0.1846 0.0644,0.5176 0,0.1841 -0.6458,0.7484 -0.6458,-0.647 h -0.5167 c 0,1.2672 -0.511,0.8921 -0.7323,0.4746 -0.1162,-0.2198 -0.1874,-0.4084 -0.3656,-0.5394 -0.2262,0.1517 -0.4252,0.4783 -0.5815,0.7118 0.2198,0.9453 0.4551,0.3049 0.8135,2.8087 0.1483,1.0368 -0.3483,1.0087 0.8659,1.0087 0,-0.7649 0.0375,-2.0352 -0.2583,-2.653 0.5211,0 0.409,-0.1211 0.7103,-0.3235 0.7869,0.5277 1.5359,-0.0781 1.1626,-1.6821 -0.1798,0.1206 -0.3171,0.218 -0.5165,0.3236 z"
         style="fill:#1b1918;fill-rule:evenodd"
         id="path50" />
      <path
         d="m 235.7027,336.0886 c 0,0.4676 0.1416,0.6974 0.452,0.9055 -0.2079,0.3111 -0.7826,0.9111 -0.8238,1.5008 -0.0873,1.2468 1.553,1.0228 2.374,1.0228 v -0.9059 c -0.5851,0 -0.9312,0.0495 -1.4211,-0.0647 -0.1053,-0.4526 0.0595,-0.6764 0.3379,-0.9556 0.7386,-0.7423 0.6956,-0.3715 0.6956,-1.0503 -1.039,-0.0229 -1.0509,-0.9367 0.1291,-1.035 -0.0153,-0.1834 -0.1264,-0.442 -0.1938,-0.5824 -0.5723,0.1337 -1.5499,0.5018 -1.5499,1.1648 z"
         style="fill:#1b1918;fill-rule:evenodd"
         id="path52" />
      <path
         d="m 225.2391,335.7003 c 0.0467,0.2009 0.0836,0.2399 0.1816,0.4005 0.369,0.6043 0.5497,1.6875 0.6413,2.3984 0.1227,0.9508 -0.3108,1.0185 0.6626,1.0185 0.2448,0 0.1938,-0.1511 0.1938,-0.5176 0,-0.7072 -0.1145,-1.6714 -0.2805,-2.2425 -0.1444,-0.4975 -0.4099,-1.4699 -0.8174,-1.7691 -0.2261,0.1517 -0.4252,0.4783 -0.5814,0.7118 z"
         style="fill:#1b1918;fill-rule:evenodd"
         id="path54" />
    </g>
    <g
       id="Layer1002">
      <path
         d="m 230.3499,311.6008 c 0.0549,-0.0549 1.1876,-1.2462 1.2773,-1.2535 0.0898,-0.007 1.2441,1.1818 1.2551,1.2535 0.011,0.0717 -1.1949,1.3048 -1.2682,1.3176 -0.0732,0.0129 -9.7387,-9.8421 -9.7387,-9.8421 l 0.0663,-0.011 8.0871,8.0713 c 0,0 -0.0238,0.097 0.0165,0.1742 0.0403,0.0773 0.3046,0.29 0.3046,0.29 z"
         style="fill:#ffffff;fill-rule:evenodd"
         id="path57" />
      <path
         d="m 222.2078,302.8394 5.0566,5.046 2.0496,2.0495 c 0,0 0.072,0.0675 0.002,0.1352 -0.0699,0.0678 -0.1544,-0.04 -0.1544,-0.04 l -4.5493,-4.5514 -2.5398,-2.508 c 0,0 -0.058,-0.2155 0.1352,-0.1313 z"
         style="fill:#ffffff;fill-rule:evenodd"
         id="path59" />
      <path
         d="m 223.0411,303.3598 c 0,0 0.474,0.1377 0.8867,0.1881 0.4126,0.0503 0.6931,0.0195 0.6931,0.0195 0,0 0.0992,0.2042 0.2997,0.3925 0.2006,0.1883 1.4236,0.974 1.9034,1.2856 0.4798,0.3116 1.5826,1.0197 2.2879,1.7544 0.7054,0.7347 1.1693,1.4651 1.2987,2.2651 0.1295,0.7999 0.0229,1.201 -0.1254,1.252 -0.1483,0.0509 -0.985,-0.862 -1.1864,-1.0656 -0.2014,-0.2035 -3.1404,-3.0888 -3.3986,-3.34 -0.2582,-0.2512 -1.966,-1.9827 -1.966,-1.9827 0,0 -0.7532,-0.7255 -0.6931,-0.7689 z"
         style="fill:#1b1918;fill-rule:evenodd"
         id="path61" />
      <path
         d="m 224.3975,304.3677 c 0,0 1.8295,1.6842 2.1457,1.9491 0.3162,0.265 1.7184,1.6116 1.979,1.9406 0.2607,0.329 0.3633,0.5854 0.2949,0.6239 -0.0684,0.0384 -0.6456,-0.8165 -0.966,-1.1797 -0.3205,-0.3632 -3.4536,-3.3339 -3.4536,-3.3339 z"
         style="fill:#ffffff;fill-rule:evenodd"
         id="path63" />
      <path
         d="m 224.4701,304.0814 c 0,0 1.4407,1.2352 1.9278,1.5044 0.4871,0.2692 2.2116,1.5536 2.8807,2.7281 0.669,1.1745 0.416,1.4235 0.3418,1.4235 -0.0741,0 -0.0745,-0.6208 -0.2713,-1.0408 -0.1969,-0.42 -1.4498,-1.8365 -1.8289,-2.1411 -0.3791,-0.3046 -1.505,-1.078 -1.9772,-1.4385 -0.4722,-0.3605 -1.0729,-1.0356 -1.0729,-1.0356 z"
         style="fill:#ffffff;fill-rule:evenodd"
         id="path65" />
      <path
         d="m 224.7436,304.0057 c 0,0 0.6282,0.5015 1.2304,0.84 0.6022,0.3385 1.6872,1.1888 2.0693,1.4528 0.3822,0.264 0.8757,0.7264 1.0808,1.0057 0.2051,0.2793 0.4756,0.6718 0.558,0.8534 0.0824,0.1816 0.3342,0.7863 0.3665,1.1672 0.0324,0.3809 0.076,0.8708 -0.039,0.875 -0.1151,0.004 -0.0269,-0.6946 -0.2424,-1.4183 -0.2155,-0.7237 -0.7713,-1.553 -1.3426,-2.0288 -0.5714,-0.4759 -1.8564,-1.3689 -2.1912,-1.6156 -0.3348,-0.2466 -1.4898,-1.1314 -1.4898,-1.1314 z"
         style="fill:#ffffff;fill-rule:evenodd"
         id="path67" />
      <path
         d="m 229.9955,310.5771 c 0,0 0.1029,0.0259 0.098,-0.0427 -0.005,-0.0687 -0.0427,-0.1041 -0.0427,-0.1041 0,0 0.1761,0.1358 0.2045,0.1358 0.0284,0 -0.0907,0.0272 -0.0907,0.0272 0,0 0.0968,0.1163 0.1557,0.126 0.0589,0.01 0.1105,0.011 0.1178,0.0626 0.007,0.0516 -0.1218,0.0415 -0.1645,0.0281 -0.0427,-0.0135 -0.2781,-0.2329 -0.2781,-0.2329 z"
         style="fill:#ffffff;fill-rule:evenodd"
         id="path69" />
      <path
         d="m 232.7294,310.7361 0.0626,0.0907 c 0,0 0.0448,-0.0678 0.0833,-0.0919 0.0385,-0.0241 0.2744,-0.1303 0.337,-0.1899 0.0625,-0.0595 0.075,-0.0763 0.075,-0.0763 0,0 -0.0973,-0.01 -0.1895,0.0409 -0.0922,0.051 -0.1242,0.1197 -0.1636,0.1395 -0.0394,0.0199 -0.2048,0.087 -0.2048,0.087 z"
         style="fill:#ffffff;fill-rule:evenodd"
         id="path71" />
      <path
         d="m 233.8865,310.2859 c 0.0577,0.009 0.0983,0.0321 0.0971,0.0739 -0.001,0.0418 -0.1502,0.2057 -0.1786,0.2524 -0.0284,0.0467 -0.1822,0.1786 -0.2118,0.2082 -0.0296,0.0296 -0.1392,0.1788 -0.1737,0.1959 -0.0345,0.0171 -0.0949,-0.004 -0.1355,0.0345 -0.0406,0.0382 -0.043,0.0833 -0.0727,0.0983 -0.0296,0.0149 -0.1425,0.0134 -0.1205,-0.0406 0.022,-0.054 0.2954,-0.2265 0.431,-0.362 0.1355,-0.1355 0.2563,-0.2869 0.2661,-0.319 0.01,-0.032 0.0589,-0.148 0.0986,-0.1416 z"
         style="fill:#ffffff;fill-rule:evenodd"
         id="path73" />
      <path
         d="m 233.8746,310.0082 c -0.0592,-0.0596 -0.0495,-0.1063 0.0369,-0.1926 0.0864,-0.0864 0.4685,-0.3626 0.5055,-0.4221 0.0369,-0.0596 0.1633,-0.2165 0.1688,-0.2265 0.005,-0.0101 0.6302,-0.5751 0.6302,-0.5751 0,0 1.3415,-1.3286 1.4804,-1.4632 0.1388,-0.1346 1.6161,-1.6119 1.7422,-1.7422 0.126,-0.1303 1.7879,-1.7083 1.9195,-1.8328 0.1315,-0.1246 0.684,-0.7124 0.7548,-0.728 0.0708,-0.0156 0.1233,0.0479 0.1163,0.0977 -0.007,0.0497 -0.4209,0.4209 -0.4209,0.4209 l -1.7563,1.7165 -2.0654,2.0197 c 0,0 -2.0569,2.027 -2.1744,2.1359 -0.1175,0.109 -0.3626,0.3498 -0.4093,0.4008 -0.0467,0.0509 -0.1898,0.1926 -0.2735,0.2719 -0.0836,0.0794 -0.1684,0.1786 -0.2548,0.1191 z"
         style="fill:#ffffff;fill-rule:evenodd"
         id="path75" />
      <path
         d="m 234.1862,310.2377 c -0.061,-0.0553 -0.0201,-0.1023 0.065,-0.1871 0.0852,-0.0849 0.6053,-0.5937 0.6859,-0.6813 0.0805,-0.0876 1.3496,-1.331 1.4971,-1.4714 0.1474,-0.1404 1.5807,-1.5356 1.5807,-1.5356 0,0 -1.1256,1.1919 -2.1475,2.262 -0.8357,0.8751 -1.5951,1.6784 -1.6812,1.6134 z"
         style="fill:#ffffff;fill-rule:evenodd"
         id="path77" />
      <path
         d="m 232.9205,310.4752 c -0.1175,-0.1044 -0.1847,-0.7994 -0.1438,-1.1196 0.0409,-0.3202 0.3266,-1.3793 0.919,-2.0126 0.5925,-0.6334 1.3692,-1.2829 1.7529,-1.5359 0.3837,-0.253 1.5279,-0.9596 1.8216,-1.1424 0.2936,-0.1829 0.8259,-0.5238 1.0673,-0.7378 0.2415,-0.2139 0.3022,-0.3528 0.351,-0.3919 0.0489,-0.039 0.3086,0.0428 0.6334,0.0101 0.3247,-0.0326 0.8878,-0.2222 0.8878,-0.1862 0,0.036 -0.5844,0.6544 -0.8015,0.8748 -0.217,0.2204 -1.0984,1.0362 -1.4037,1.3579 -0.3052,0.3217 -1.3173,1.2456 -1.7138,1.647 -0.3965,0.4014 -1.8017,1.7803 -2.0367,2.0074 -0.235,0.2271 -0.5973,0.5977 -0.6724,0.6923 -0.0751,0.0946 -0.0788,0.0686 -0.1896,0.1746 -0.1108,0.1059 -0.1858,0.1257 -0.2219,0.1779 -0.036,0.0522 -0.0473,0.0537 -0.0979,0.1093 -0.0507,0.0555 -0.1517,0.0751 -0.1517,0.0751 z"
         style="fill:#1b1918;fill-rule:evenodd"
         id="path79" />
      <path
         d="m 233.1564,310.1306 c 0,0 -0.0278,-0.6822 0.054,-1.1239 0.0818,-0.4416 0.4957,-1.2367 0.8244,-1.6524 0.3288,-0.4157 1.1376,-1.1565 1.8488,-1.6262 0.7111,-0.4698 1.3219,-0.8125 1.6539,-1.0473 0.3321,-0.2347 0.3562,-0.2435 0.5772,-0.4035 0.221,-0.1599 0.4035,-0.3043 0.4035,-0.3043 0,0 -0.2783,0.3184 -0.673,0.6245 -0.3946,0.3062 -0.7759,0.4557 -1.1931,0.767 -0.4172,0.3114 -1.0484,0.6752 -1.4068,1.0002 -0.3583,0.3251 -0.8515,0.6224 -1.1677,1.0927 -0.3162,0.4704 -0.4933,0.8473 -0.6325,1.2359 -0.1391,0.3885 -0.1712,0.8271 -0.1831,1.0798 -0.0119,0.2528 -0.001,0.3053 -0.021,0.3358 -0.0196,0.0305 -0.0846,0.0217 -0.0846,0.0217 z"
         style="fill:#ffffff;fill-rule:evenodd"
         id="path81" />
      <path
         d="m 233.4937,309.6932 c 0.0738,0.0119 0.1648,-0.1575 0.1889,-0.3254 0.0241,-0.1679 0.2436,-0.8577 0.5915,-1.4339 0.348,-0.5763 1.6275,-1.5304 1.803,-1.6577 0.1755,-0.1272 1.2678,-0.8891 1.4574,-1.0429 0.1895,-0.1538 0.5656,-0.4603 0.7591,-0.6498 0.1935,-0.1896 0.492,-0.5119 0.492,-0.5119 0,0 -0.6852,0.5894 -1.1049,0.8986 -0.4197,0.3092 -1.4394,1.0142 -1.7669,1.2773 -0.3275,0.2631 -1.158,0.9371 -1.4007,1.2206 -0.2426,0.2836 -0.6364,0.8113 -0.753,1.1669 -0.1166,0.3556 -0.2884,0.8946 -0.2664,1.0582 z"
         style="fill:#ffffff;fill-rule:evenodd"
         id="path83" />
      <path
         d="m 234.3422,308.801 c 0.1059,0.0455 0.3495,-0.3888 0.5009,-0.5842 0.1513,-0.1953 1.0957,-1.1082 1.338,-1.3564 0.2424,-0.2481 0.6151,-0.5552 0.7359,-0.6824 0.1209,-0.1273 0.7597,-0.7268 0.7597,-0.7268 0,0 -1.8405,1.5789 -2.0767,1.7938 -0.2362,0.2149 -0.9929,0.9172 -1.2578,1.556 z"
         style="fill:#ffffff;fill-rule:evenodd"
         id="path85" />
    </g>
    <g
       id="Layer1003">
      <g
         id="Layer1004">
        <path
           d="m 262.4504,324.0933 c 0.0366,-0.1034 0.1099,-0.1218 0.2195,-0.0533 0.63,0.3788 0.9442,0.8893 0.9442,1.5294 -0.0266,0.4769 -0.1279,0.8944 -0.3042,1.2518 -0.1762,0.3573 -0.3573,0.6283 -0.5419,0.8129 -0.3194,0.3207 -0.7762,0.5602 -1.3731,0.7164 -0.075,0.007 -0.1331,0.01 -0.1763,0.01 -0.058,0 -0.0881,-0.0135 -0.0881,-0.0401 0,-0.0515 0.0881,-0.1409 0.2644,-0.2675 0.3508,-0.2443 0.6781,-0.5218 0.9822,-0.8329 0.2993,-0.2993 0.449,-0.497 0.449,-0.5952 0,-0.2526 -0.2775,-0.6052 -0.833,-1.0554 -0.103,-0.0847 -0.1361,-0.1881 -0.0964,-0.3077 0.1448,-0.2827 0.3312,-0.6715 0.5537,-1.1684 z"
           style="fill:#1b1918;fill-rule:evenodd"
           id="path88" />
        <path
           d="m 261.2016,323.132 c -0.0135,0.3539 -0.0218,0.6715 -0.0266,0.9525 -0.005,0.281 -0.0183,0.5188 -0.0414,0.713 -0.0384,0.4193 -0.12,0.7897 -0.2413,1.1139 -0.1213,0.3225 -0.2178,0.5372 -0.2876,0.6449 -0.0698,0.1065 -0.1278,0.1846 -0.1728,0.2348 -0.0514,0.048 -0.0916,0.0645 -0.1195,0.048 -0.0266,-0.0166 -0.0384,-0.045 -0.0319,-0.0829 0,-0.0101 0.0301,-0.158 0.0882,-0.4442 0.0584,-0.2841 0.0947,-0.5616 0.1099,-0.8295 0.0149,-0.2674 0.0166,-0.6466 0.007,-1.1353 -0.0101,-0.4887 0.002,-0.8626 0.0349,-1.1222 0.02,-0.1497 0.0515,-0.3059 0.0964,-0.4669 0.0467,-0.1632 0.0995,-0.3211 0.1597,-0.4756 0.0598,-0.1544 0.1213,-0.3011 0.1876,-0.4407 0.065,-0.1396 0.1248,-0.2626 0.1798,-0.3704 0.0445,-0.0685 0.0846,-0.0947 0.1161,-0.0799 0.0335,0.0149 0.0466,0.0415 0.0449,0.0799 -0.007,0.0231 -0.0148,0.0728 -0.0231,0.1496 -0.008,0.0764 -0.0149,0.1663 -0.0232,0.2723 -0.009,0.1047 -0.017,0.2182 -0.0218,0.3377 -0.006,0.1213 -0.0131,0.2378 -0.0183,0.3539 -0.005,0.1147 -0.008,0.2212 -0.0118,0.3194 -0.003,0.0964 -0.005,0.1728 -0.005,0.2277 z"
           style="fill:#1b1918;fill-rule:evenodd"
           id="path90" />
        <path
           d="m 258.0588,321.1651 c 0,-0.1065 0.0868,-0.3308 0.2578,-0.6715 0.1728,-0.3408 0.2841,-0.5236 0.3373,-0.5502 0.1034,-0.045 0.2513,0.0349 0.4455,0.2408 0.1929,0.2064 0.2963,0.3674 0.3094,0.4839 0,0.1527 -0.0816,0.3757 -0.2444,0.665 -0.1614,0.291 -0.2792,0.4354 -0.3508,0.4354 -0.0284,0 -0.1248,-0.055 -0.2875,-0.168 -0.1615,-0.1112 -0.2841,-0.1994 -0.3639,-0.2639 -0.0685,-0.0585 -0.1034,-0.1165 -0.1034,-0.1715 z"
           style="fill:#1b1918;fill-rule:evenodd"
           id="path92" />
        <path
           d="m 258.9419,324.5302 c 0.0816,-0.0479 0.1397,-0.1095 0.1746,-0.181 0.0231,-0.0751 0.0349,-0.1431 0.0349,-0.2047 0,-0.0449 0,-0.1195 0,-0.2225 0,-0.1047 0,-0.2395 0,-0.4058 0,-0.1265 0.0632,-0.2958 0.1893,-0.5105 0.0851,-0.1527 0.1999,-0.3805 0.346,-0.6815 0.0397,-0.0681 0.0746,-0.0947 0.1082,-0.0781 0.0179,0.0135 0.0262,0.0899 0.0232,0.233 -0.007,0.0977 -0.008,0.2343 -0.008,0.4106 0,0.0414 -0.005,0.2373 -0.0149,0.5881 -0.01,0.2697 -0.1099,0.5721 -0.2975,0.9063 -0.2012,0.3473 -0.3857,0.5999 -0.5555,0.7596 -0.0266,-0.1047 -0.0432,-0.2059 -0.0532,-0.3076 -0.01,-0.0995 0.008,-0.2029 0.0532,-0.3059 z"
           style="fill:#1b1918;fill-rule:evenodd"
           id="path94" />
        <path
           d="m 253.97,316.4371 c 0,-0.048 0.0894,-0.2627 0.2692,-0.6414 0.181,-0.381 0.2993,-0.5738 0.3591,-0.5804 0.1361,0 0.2858,0.0834 0.452,0.2479 0.1662,0.1858 0.2478,0.3639 0.2478,0.5367 0,0.1579 -0.0763,0.3791 -0.2312,0.6619 -0.1527,0.2823 -0.2657,0.4236 -0.3373,0.4236 -0.0467,0 -0.1449,-0.0663 -0.2958,-0.1994 -0.1497,-0.133 -0.2662,-0.2295 -0.346,-0.2875 -0.0781,-0.058 -0.1178,-0.1113 -0.1178,-0.1614 z"
           style="fill:#1b1918;fill-rule:evenodd"
           id="path96" />
        <path
           d="m 253.3015,318.2491 c 0,-0.058 0.1047,-0.2775 0.3124,-0.6597 0.2081,-0.3809 0.336,-0.5755 0.384,-0.5821 0.0785,0 0.2011,0.0716 0.3674,0.213 0.1679,0.1413 0.281,0.2744 0.3394,0.4005 0.1065,-0.1745 0.2095,-0.3456 0.3076,-0.5105 0.1427,-0.2343 0.2291,-0.3504 0.2627,-0.3504 0.1161,0 0.2657,0.0829 0.4468,0.2474 0.1763,0.1846 0.2644,0.3561 0.2644,0.5123 0,0.1776 -0.0881,0.4023 -0.2644,0.6715 -0.1811,0.2561 -0.3107,0.3857 -0.3888,0.3857 -0.0615,0 -0.1514,-0.0615 -0.2679,-0.1811 -0.1627,-0.1715 -0.2971,-0.2976 -0.4036,-0.3757 -0.2679,0.5468 -0.4773,0.8195 -0.6287,0.8195 -0.0332,0 -0.1628,-0.0917 -0.3905,-0.271 -0.226,-0.1798 -0.3408,-0.2858 -0.3408,-0.3194 z"
           style="fill:#1b1918;fill-rule:evenodd"
           id="path98" />
        <path
           d="m 258.9522,325.1184 c -0.226,0.1261 -0.3674,0.2025 -0.4206,0.226 -0.0533,0.0249 -0.1078,0.0598 -0.1663,0.1047 -0.0563,0.0463 -0.123,0.1078 -0.2011,0.1846 -0.0397,0.0297 -0.0978,0.0497 -0.1776,0.0598 -0.0799,0.01 -0.1479,0.0331 -0.2047,0.0698 -0.0567,0.0384 -0.1479,0.1113 -0.2709,0.2195 -0.1231,0.1095 -0.2195,0.1728 -0.2876,0.1928 -0.0484,0.0101 -0.1064,0.0114 -0.1727,0.007 -0.0668,-0.005 -0.1384,-0.0118 -0.2165,-0.0218 -0.1693,0 -0.394,0.2194 -0.675,0.6584 -0.2805,0.4389 -0.6099,0.6584 -0.9904,0.6584 -0.4472,0 -0.7614,-0.2644 -0.9394,-0.7946 -0.0301,-0.0781 -0.0563,-0.2046 -0.0781,-0.3809 -0.0232,-0.1745 -0.0349,-0.3124 -0.0349,-0.4088 0.006,-0.1946 0.0349,-0.3805 0.0864,-0.555 0.0497,-0.1763 0.1064,-0.3229 0.1727,-0.439 0.0651,-0.1165 0.1314,-0.1946 0.2012,-0.233 0.0698,-0.0397 0.13,-0.0196 0.178,0.0585 0,0.3207 0.055,0.5751 0.1663,0.7644 0.1745,0.3077 0.4721,0.4621 0.8909,0.4621 0.233,0 0.4739,-0.1261 0.7235,-0.3805 0.2474,-0.2526 0.4136,-0.3625 0.4987,-0.3307 0.1112,0.0881 0.2177,0.123 0.3189,0.1078 0.103,-0.0166 0.206,-0.1061 0.3142,-0.271 0.1065,-0.1645 0.1946,-0.226 0.2627,-0.1876 0.0946,0.0467 0.1714,0.0563 0.2295,0.0349 0.058,-0.0231 0.1413,-0.1248 0.2509,-0.3041 0.1082,-0.1815 0.1911,-0.2513 0.2508,-0.2129 0.045,0.068 0.0965,0.1064 0.1549,0.1147 0.0598,0.008 0.1048,0.003 0.1362,-0.0166 0.0266,0.038 0.0501,0.0847 0.068,0.1379 0.0201,0.055 0.0301,0.1095 0.0301,0.168 0,0.0432 -0.01,0.0881 -0.0301,0.1361 -0.0179,0.0498 -0.0414,0.1065 -0.068,0.1715 z"
           style="fill:#1b1918;fill-rule:evenodd"
           id="path100" />
        <path
           d="m 256.8283,318.6466 c -0.0449,0.103 -0.2094,0.3142 -0.4935,0.6301 -0.2844,0.3176 -0.6784,0.7382 -1.182,1.2649 -0.0218,0.0118 -0.0248,-0.0179 -0.01,-0.0912 0.0166,-0.0733 0.055,-0.168 0.113,-0.2845 0.1165,-0.1593 0.3159,-0.4106 0.5969,-0.7531 0.281,-0.3421 0.6301,-0.7527 1.0489,-1.2335 0.0882,-0.0781 0.0633,0.0785 -0.0733,0.4673 z m -2.0363,6.2041 c -0.0384,0 -0.0816,0.1013 -0.1313,0.3024 -0.0581,0.2147 -0.103,0.3709 -0.1362,0.4673 -0.2229,0.5851 -0.4023,0.9809 -0.5353,1.1886 -0.3059,0.4673 -0.6999,0.7016 -1.1838,0.7016 -0.2958,0 -0.5402,-0.1379 -0.7348,-0.4141 -0.1946,-0.2727 -0.2928,-0.6597 -0.2928,-1.1637 0,-0.01 0.0171,-0.216 0.0485,-0.6183 0.0366,-0.3573 0.0746,-0.5969 0.1165,-0.7164 0.0846,-0.2426 0.1828,-0.4389 0.2923,-0.5851 0.1366,-0.1911 0.2129,-0.2976 0.2295,-0.3212 0.1065,-0.0877 0.8928,-0.8591 2.3558,-2.3155 1.4612,-1.4561 2.3919,-2.4801 2.7929,-3.0705 0.0781,-0.1265 0.1296,-0.1893 0.1544,-0.1893 0.0201,0.007 0.0214,0.0397 0.005,0.1012 -0.0314,0.1627 -0.0964,0.3639 -0.1941,0.6034 -0.0965,0.2413 -0.2614,0.5402 -0.4922,0.8963 -0.178,0.2958 -1.4346,1.6257 -3.7686,3.9897 0.0681,0.0131 0.1344,0.0314 0.1994,0.058 0.3207,0.1196 0.5568,0.2426 0.7065,0.3657 0.1461,0.12 0.301,0.3011 0.4673,0.5454 0.01,0.0201 0.0213,0.0432 0.0362,0.0733 0.0152,0.0279 0.0366,0.0628 0.065,0.1012 z m -0.4869,0.0882 c 0,-0.2178 -0.1746,-0.3709 -0.5254,-0.4573 -0.1846,-0.0497 -0.3992,-0.0729 -0.6436,-0.0729 -0.1645,0 -0.2858,0.0149 -0.3591,0.0432 -0.1994,0.0912 -0.2975,0.2858 -0.2975,0.5851 0,0.2077 0.0449,0.3923 0.1365,0.555 0.1261,0.2178 0.3255,0.326 0.5982,0.326 0.3129,0 0.5738,-0.113 0.785,-0.3408 0.2042,-0.2212 0.3059,-0.4337 0.3059,-0.6383 z"
           style="fill:#1b1918;fill-rule:evenodd"
           id="path102" />
        <path
           d="m 252.6008,323.4719 c -0.008,0.1815 -0.0284,0.3478 -0.0581,0.4988 -0.0283,0.1514 -0.068,0.2779 -0.12,0.3826 -0.0497,0.103 -0.1112,0.1811 -0.1858,0.2343 -0.0751,0.0515 -0.1663,0.0698 -0.2727,0.0533 0.005,-0.381 0.0466,-0.9111 0.1213,-1.5909 0.0746,-0.6802 0.188,-1.4316 0.3407,-2.2527 0.0781,-0.2391 0.2343,-0.6615 0.4721,-1.2649 0.0267,-0.0598 0.0515,-0.0834 0.0781,-0.0734 0.0267,0.008 0.0384,0.0332 0.0384,0.0734 -0.0117,0.2975 -0.0733,0.8661 -0.1797,1.7038 -0.1061,0.8377 -0.1728,1.4133 -0.1977,1.7239 -0.0231,0.3124 -0.0366,0.4822 -0.0366,0.5118 z"
           style="fill:#1b1918;fill-rule:evenodd"
           id="path104" />
        <path
           d="m 250.7298,326.3338 c 0,-0.1396 -0.048,-0.2544 -0.1462,-0.3425 -0.048,-0.048 -0.1178,-0.1012 -0.2094,-0.158 -0.0912,-0.0563 -0.1663,-0.0898 -0.2243,-0.0999 -0.0419,0 -0.1182,0.0851 -0.2277,0.2561 -0.1117,0.1715 -0.1663,0.3142 -0.1663,0.4307 0,0.2212 0.1313,0.3307 0.394,0.3307 0.1178,0 0.2426,-0.0414 0.3774,-0.1278 0.1344,-0.0864 0.2025,-0.1828 0.2025,-0.2893 z m 0.7068,-1.1506 c 0,0.2112 -0.0349,0.4472 -0.1047,0.7069 -0.0698,0.2591 -0.1632,0.4952 -0.2762,0.7064 -0.1745,0.3342 -0.3556,0.5886 -0.5401,0.7644 -0.1846,0.175 -0.3906,0.2627 -0.6183,0.2627 -0.3609,0 -0.5406,-0.2191 -0.5406,-0.658 0,-0.1497 0.0235,-0.3094 0.0733,-0.4821 0.0615,-0.1781 0.1379,-0.346 0.2312,-0.5005 0.0912,-0.1562 0.1711,-0.2875 0.2361,-0.3958 -0.065,-0.02 -0.1047,-0.0314 -0.12,-0.0366 -0.0148,-0.005 -0.0266,-0.006 -0.0367,-0.006 -0.01,-0.0398 0.0236,-0.1445 0.0982,-0.3177 l 0.5153,-1.1733 c 0.0502,-0.123 0.1065,-0.1845 0.1715,-0.1845 0.048,0 0.123,0.0314 0.2212,0.0929 0.0995,0.0615 0.1828,0.1165 0.2509,0.1645 0.1627,0.1462 0.2758,0.2875 0.3408,0.4241 0.0645,0.1361 0.0981,0.3473 0.0981,0.6331 z"
           style="fill:#1b1918;fill-rule:evenodd"
           id="path106" />
        <path
           d="m 244.76,330.9671 c 0,-0.1064 0.0851,-0.3307 0.2579,-0.6715 0.171,-0.3407 0.284,-0.5253 0.3355,-0.5502 0.1047,-0.0467 0.2531,0.0349 0.4459,0.2409 0.1924,0.2064 0.2958,0.3674 0.3089,0.4839 0,0.1527 -0.0816,0.3739 -0.2426,0.6649 -0.1627,0.2911 -0.2792,0.4355 -0.3508,0.4355 -0.0301,0 -0.1248,-0.055 -0.2875,-0.168 -0.1632,-0.1113 -0.2845,-0.1994 -0.3657,-0.264 -0.0685,-0.0602 -0.1016,-0.1165 -0.1016,-0.1715 z"
           style="fill:#1b1918;fill-rule:evenodd"
           id="path108" />
        <path
           d="m 245.0357,327.6188 c -0.5087,-0.0101 -0.8896,-0.1846 -1.1388,-0.5254 -0.1981,-0.2857 -0.301,-0.6366 -0.3076,-1.0554 0.0367,-0.1397 0.0716,-0.2793 0.1082,-0.4189 0.0349,-0.1396 0.0764,-0.2644 0.1231,-0.3744 0.048,-0.1112 0.1029,-0.2011 0.1675,-0.2709 0.0668,-0.0698 0.1449,-0.1047 0.2396,-0.1047 0,0.3708 0.0929,0.6601 0.2775,0.8696 0.1845,0.2094 0.4206,0.3141 0.7068,0.3141 l 0.7012,-1.1436 c 0.1514,-0.2413 0.3159,-0.4389 0.4922,-0.5921 0.1745,-0.1527 0.3508,-0.2291 0.5301,-0.2291 0.0982,0 0.2129,0.0197 0.346,0.0598 0.3242,0.0982 0.5236,0.1462 0.5986,0.1462 0.0782,0 0.1344,-0.007 0.1676,-0.0218 0.0349,-0.0149 0.0781,-0.0315 0.13,-0.0515 0.0581,0 0.0829,0.0301 0.0729,0.0881 -0.01,0.0816 -0.0498,0.1981 -0.1196,0.3526 -0.0698,0.1544 -0.1265,0.2495 -0.1697,0.2858 -0.0449,0.0349 -0.0995,0.0933 -0.1662,0.1714 -0.0664,0.0781 -0.1397,0.1711 -0.2195,0.2823 -0.0799,0.11 -0.1911,0.281 -0.3355,0.5123 -0.1449,0.2295 -0.2313,0.3691 -0.261,0.4189 -0.2461,0.3892 -0.5157,0.6898 -0.808,0.901 -0.3474,0.2578 -0.7265,0.3857 -1.1354,0.3857 z m 0.4918,-1.556 c 0.2578,0 0.4773,-0.0349 0.6636,-0.1064 0.1846,-0.0716 0.3491,-0.1615 0.4918,-0.2692 0.2762,-0.1981 0.5087,-0.4473 0.6998,-0.7501 -0.0379,-0.0379 -0.1326,-0.0846 -0.284,-0.1379 -0.1514,-0.0532 -0.2609,-0.0811 -0.3294,-0.0811 -0.161,0 -0.3059,0.0545 -0.432,0.161 -0.0816,0.0615 -0.1715,0.1715 -0.2692,0.3259 z"
           style="fill:#1b1918;fill-rule:evenodd"
           id="path110" />
        <path
           d="m 244.2438,324.8673 c -0.008,0.1815 -0.0284,0.3478 -0.058,0.4987 -0.0284,0.1514 -0.0681,0.278 -0.12,0.3827 -0.0498,0.103 -0.1113,0.1811 -0.1859,0.2343 -0.075,0.0515 -0.1662,0.0698 -0.2727,0.0532 0.005,-0.3809 0.0467,-0.911 0.1213,-1.5908 0.0746,-0.6803 0.1881,-1.4316 0.3408,-2.2528 0.0781,-0.2391 0.2343,-0.6614 0.4721,-1.2649 0.0266,-0.0598 0.0515,-0.0833 0.0781,-0.0733 0.0266,0.008 0.0384,0.0332 0.0384,0.0733 -0.0118,0.2976 -0.0733,0.8661 -0.1798,1.7039 -0.106,0.8377 -0.1728,1.4132 -0.1976,1.7239 -0.0232,0.3124 -0.0367,0.4821 -0.0367,0.5118 z"
           style="fill:#1b1918;fill-rule:evenodd"
           id="path112" />
        <path
           d="m 240.7109,323.4113 c 0.1095,-0.0799 0.2242,-0.1994 0.3407,-0.3539 0.055,-0.075 0.1362,-0.1946 0.2444,-0.3608 0.0484,-0.0964 0.0964,-0.1811 0.1462,-0.2526 0.0798,-0.1645 0.1797,-0.3159 0.2962,-0.4525 0.0581,-0.0646 0.1296,-0.1362 0.2143,-0.2143 0.0414,-0.0318 0.0798,-0.0632 0.1112,-0.0916 0.0336,-0.0297 0.065,-0.058 0.0934,-0.0829 0.0432,-0.0515 0.1161,-0.1562 0.2243,-0.3111 0.0283,-0.0497 0.0733,-0.123 0.1313,-0.2195 0.1331,0.1301 0.2579,0.2727 0.3757,0.4276 0.1479,0.2108 0.2229,0.3757 0.2229,0.4918 0,0.2177 -0.0698,0.4223 -0.2094,0.6135 -0.1431,0.188 -0.3059,0.281 -0.4922,0.281 -0.0183,0 -0.0881,-0.0101 -0.2077,-0.0332 -0.1248,-0.0266 -0.2146,-0.0397 -0.2744,-0.0397 -0.1449,0 -0.2928,0.0912 -0.4424,0.2723 -0.0546,0.0532 -0.161,0.1898 -0.3173,0.414 l -0.4572,0.5254 c -0.0231,-0.0982 -0.0415,-0.1964 -0.0567,-0.2959 -0.0131,-0.1016 0.005,-0.2063 0.0567,-0.3176 z"
           style="fill:#1b1918;fill-rule:evenodd"
           id="path114" />
        <path
           d="m 240.7253,324.0248 c -0.1213,0.123 -0.2609,0.2142 -0.4237,0.2727 -0.0816,0.0296 -0.1401,0.0432 -0.1763,0.0432 -0.0999,0 -0.2011,-0.0184 -0.301,-0.0585 -0.1013,-0.038 -0.1811,-0.0698 -0.2409,-0.0947 -0.0602,-0.0249 -0.113,-0.0467 -0.1579,-0.0663 -0.0816,0 -0.2012,0.0497 -0.3561,0.1462 -0.4651,0.2727 -0.8744,0.7365 -1.2282,1.3879 -0.0651,0.1082 -0.1366,0.2627 -0.213,0.4691 -0.2077,0.5188 -0.3124,0.9725 -0.3124,1.3582 0,0.6166 0.2095,1.1088 0.6283,1.4761 0.4089,0.3692 0.9909,0.555 1.744,0.555 0.5899,0 1.1851,-0.161 1.782,-0.4821 0.5903,-0.3224 1.1004,-0.7396 1.5293,-1.2514 0.1846,-0.2544 0.3277,-0.4459 0.4289,-0.5755 0.1431,-0.1942 0.2426,-0.2727 0.3011,-0.2343 0.0497,0.0332 -0.007,0.1963 -0.1698,0.4869 -0.1596,0.2928 -0.3638,0.6135 -0.6134,0.9643 -0.1261,0.1728 -0.3142,0.3975 -0.5603,0.6733 -0.2893,0.3211 -0.5118,0.5502 -0.668,0.6867 -0.5153,0.4639 -0.956,0.7881 -1.3199,0.9739 -0.4673,0.2361 -0.9625,0.3561 -1.4848,0.3561 -0.2827,0 -0.5253,-0.0301 -0.7313,-0.0882 -0.4856,-0.1365 -0.8761,-0.4106 -1.1671,-0.8229 -0.1462,-0.2243 -0.2527,-0.4721 -0.3225,-0.7465 -0.0698,-0.2727 -0.1047,-0.5485 -0.1047,-0.8277 0,-0.3242 0.0633,-0.7248 0.1894,-1.2021 0.1265,-0.4656 0.291,-0.9124 0.4956,-1.3448 0.1362,-0.2727 0.2644,-0.5052 0.384,-0.7016 0.1627,-0.2692 0.2941,-0.4738 0.394,-0.6135 0.1078,-0.1361 0.2094,-0.2609 0.3076,-0.3739 0.1628,-0.1894 0.3953,-0.4189 0.7012,-0.6916 0.065,-0.065 0.0964,-0.1095 0.0964,-0.1331 0,-0.1029 -0.0379,-0.1911 -0.1161,-0.2626 -0.075,-0.0746 -0.1697,-0.1113 -0.2875,-0.1113 -0.0615,0 -0.123,0.0118 -0.1846,0.0332 -0.0615,0.0235 -0.1213,0.0414 -0.1797,0.055 -0.0297,-0.0201 -0.0297,-0.0699 0,-0.1515 0.0384,-0.0981 0.0798,-0.171 0.1265,-0.2194 0.1462,-0.1728 0.319,-0.3076 0.5188,-0.4041 0.1994,-0.0977 0.4023,-0.1461 0.61,-0.1461 0.2212,0 0.4271,0.0532 0.6183,0.1614 0.1928,0.1065 0.2727,0.2409 0.2395,0.404 -0.0266,0.0995 -0.0615,0.1877 -0.1047,0.261 -0.0432,0.0715 -0.1148,0.1662 -0.2112,0.2792 -0.0401,0.0515 -0.0301,0.0864 0.0284,0.1012 0.058,0.0101 0.1261,0.007 0.2042,-0.0113 0.0781,-0.0183 0.1815,-0.065 0.3076,-0.1431 0.0449,0.0681 0.0715,0.1331 0.0781,0.1959 0.006,0.0633 0.008,0.1034 0.008,0.12 0,0.0331 -0.007,0.0829 -0.0232,0.1514 -0.0165,0.0681 -0.0384,0.1161 -0.0632,0.1462 z"
           style="fill:#1b1918;fill-rule:evenodd"
           id="path116" />
      </g>
      <path
         d="m 204.6313,327.6487 c 0,-0.0803 -0.1744,-0.202 -0.5207,-0.3614 -0.3515,-0.1641 -0.529,-0.3629 -0.529,-0.5979 0,-0.1692 0.0377,-0.3613 0.1133,-0.5746 0.0756,-0.2122 0.1661,-0.4156 0.2728,-0.6077 0.0212,-0.0331 0.0523,-0.0559 0.0937,-0.0724 0.0393,-0.0166 0.0802,-0.0248 0.1196,-0.0248 0.0398,0 0.0756,0.008 0.1086,0.0248 0.0311,0.0165 0.0508,0.0393 0.0575,0.0724 0,0.0673 0.0543,0.1346 0.1641,0.2019 0.1087,0.0673 0.2185,0.1397 0.3287,0.2184 0.1114,0.0788 0.1905,0.1693 0.2381,0.2728 0.0492,0.1082 0.072,0.2724 0.072,0.4892 0,0.3189 -0.0409,0.6424 -0.1247,0.9726 -0.0803,0.3251 -0.2315,0.7243 -0.4515,1.1989 -0.353,0.7376 -0.8297,1.3237 -1.4291,1.7606 -0.2216,0.1413 -0.4385,0.2464 -0.6503,0.3172 -0.2318,0.0772 -0.4798,0.1165 -0.7458,0.1165 -0.6192,0 -1.0954,-0.2314 -1.4288,-0.6931 -0.2826,-0.3944 -0.4239,-0.9001 -0.4239,-1.5161 0,-0.2724 0.0575,-0.6306 0.1724,-1.0726 0.1165,-0.4302 0.2365,-0.8013 0.3613,-1.1119 0.1346,-0.3235 0.2515,-0.5963 0.3468,-0.8179 0.0295,-0.0508 0.0704,-0.1315 0.1232,-0.2413 0.0523,-0.1086 0.1216,-0.2499 0.2035,-0.4223 0.059,-0.1197 0.1051,-0.2184 0.1428,-0.2987 0.0363,-0.0807 0.074,-0.1547 0.1134,-0.222 0.0771,-0.128 0.1346,-0.1905 0.1724,-0.187 0.0543,0.01 0.0693,0.0653 0.0429,0.1673 -0.0248,0.12 -0.0575,0.222 -0.0953,0.309 -0.34,0.7883 -0.575,1.3402 -0.7029,1.6554 -0.2283,0.57 -0.3417,1.0136 -0.3417,1.3273 0,0.5911 0.1823,1.015 0.5487,1.2713 0.2692,0.1755 0.6191,0.2645 1.0493,0.2645 0.7703,0 1.4142,-0.2169 1.935,-0.6506 0.4416,-0.3681 0.6636,-0.7573 0.6636,-1.1678 z m -0.6585,-2.1416 c 0.0539,-0.0968 0.1429,-0.2315 0.2641,-0.4042 0.1216,-0.174 0.2547,-0.3397 0.3991,-0.4976 0.1449,-0.1594 0.2925,-0.3022 0.4436,-0.4317 0.1563,-0.1252 0.2594,-0.2204 0.307,-0.2878 0.0476,-0.0558 0.0724,-0.1035 0.0724,-0.1444 0,-0.0362 -0.0425,-0.074 -0.1299,-0.1165 -0.0869,-0.0476 -0.1196,-0.1086 -0.1015,-0.1822 l 0.2889,-0.6491 c 0.0838,-0.1476 0.1594,-0.2889 0.2267,-0.4235 0.0984,-0.1511 0.1972,-0.222 0.2924,-0.2122 0.3185,0.0575 0.5664,0.1528 0.7475,0.2842 0.1822,0.1283 0.2739,0.2598 0.2739,0.3944 0,0.1988 -0.0854,0.4054 -0.2562,0.6207 -0.1657,0.2315 -0.3416,0.3944 -0.5239,0.4912 -0.161,0.087 -0.2956,0.1626 -0.4074,0.2283 -0.1098,0.0657 -0.2003,0.1181 -0.2707,0.1559 -0.2661,0.1645 -0.4617,0.2991 -0.5881,0.4042 -0.1248,0.1067 -0.2594,0.2413 -0.4042,0.4074 -0.1445,0.1641 -0.2267,0.2857 -0.2496,0.3629 -0.1346,0.0838 -0.2629,0.0838 -0.3841,0 z m 6.6502,-1.6264 c -0.007,0.189 -0.0165,0.4188 -0.0314,0.69 -0.0146,0.2712 -0.0229,0.4633 -0.0264,0.5751 -0.0162,0.379 -0.0555,0.6947 -0.1181,0.9509 -0.0626,0.2543 -0.12,0.4566 -0.1708,0.6077 -0.0461,0.1445 -0.1067,0.3137 -0.1858,0.5074 -0.0787,0.1956 -0.1885,0.4006 -0.3314,0.6159 -0.1433,0.2169 -0.2862,0.3925 -0.4306,0.5275 -0.2248,0.192 -0.4633,0.2873 -0.7128,0.2837 -0.1315,-0.006 -0.2496,-0.0393 -0.3562,-0.1015 -0.0988,-0.0673 -0.1925,-0.148 -0.2795,-0.2448 -0.0771,-0.0642 -0.1247,-0.1051 -0.1429,-0.1248 -0.0688,-0.061 -0.1019,-0.1248 -0.1019,-0.1921 0,-0.0496 0.0248,-0.1051 0.0724,-0.1692 0.0477,-0.061 0.102,-0.1299 0.1642,-0.207 0.0279,-0.0378 0.0673,-0.0953 0.1149,-0.1724 0.0476,-0.0772 0.0905,-0.1807 0.1267,-0.309 0.0378,-0.1279 0.0673,-0.294 0.0902,-0.4991 0.0181,-0.2086 0.0315,-0.3877 0.0377,-0.5357 l 0.015,-0.4467 c 0.003,-0.1543 0.003,-0.3153 0,-0.4861 0.01,-0.4436 0.087,-0.923 0.2314,-1.4437 0.0988,-0.35 0.2598,-0.8231 0.4814,-1.4194 0.0146,-0.0393 0.0311,-0.0653 0.0445,-0.0787 0.0146,-0.0145 0.026,-0.0228 0.0358,-0.0228 0.0331,0.003 0.0476,0.0952 0.0445,0.2743 -0.007,0.087 -0.0165,0.2267 -0.0295,0.4188 -0.0166,0.1952 -0.0264,0.322 -0.0296,0.3759 l -0.1578,1.8759 c -0.01,0.2251 -0.0378,0.4814 -0.0819,0.7703 -0.0476,0.279 -0.1169,0.5518 -0.207,0.8179 -0.1248,0.3877 -0.2877,0.7226 -0.4861,1.0005 0.01,0.0197 0.0476,0.0295 0.1149,0.0295 l 0.1839,0.01 c 0.2629,0.01 0.5274,-0.0906 0.7915,-0.3008 0.2645,-0.2101 0.4322,-0.4317 0.5046,-0.6636 0.072,-0.233 0.1114,-0.4679 0.1181,-0.7061 0.0326,-0.542 0.0574,-1.0135 0.0771,-1.4158 0.0197,-0.4042 0.0492,-0.7293 0.0921,-0.9808 0.0409,-0.2495 0.1082,-0.5223 0.1988,-0.8144 0.0917,-0.294 0.2346,-0.6734 0.4302,-1.1382 0.0295,-0.0477 0.0574,-0.0673 0.0822,-0.0575 0.0229,0.01 0.0115,0.1968 -0.033,0.5648 -0.0461,0.368 -0.0917,0.9116 -0.1394,1.6342 z m -0.0295,0.3893 c 0,0.1724 0.002,0.3007 0.005,0.3845 0,0.1181 0.0276,0.2724 0.0819,0.4613 0.0575,0.148 0.1543,0.2697 0.2893,0.3665 0.1279,0.0952 0.3003,0.1444 0.5188,0.1444 0.2991,0 0.5341,-0.0822 0.7081,-0.2464 0.2298,-0.2133 0.3861,-0.34 0.4664,-0.3743 0.0543,-0.0232 0.1165,-0.0263 0.1857,-0.0118 0.0689,0.0134 0.141,0.0181 0.2185,0.0118 0.087,0 0.1673,-0.0988 0.2444,-0.2956 0.0772,-0.1972 0.1299,-0.3038 0.1594,-0.3204 0.0295,-0.0165 0.0626,-0.0196 0.102,-0.01 0.1117,0.0378 0.1889,0.0575 0.2298,0.0575 0.0839,0 0.1559,-0.0559 0.2169,-0.1677 0.0264,-0.0394 0.0673,-0.1397 0.1248,-0.3039 0.0476,-0.1377 0.087,-0.207 0.1149,-0.207 0.0394,0 0.059,0.0429 0.059,0.1299 0,0.3267 -0.0952,0.6455 -0.2841,0.9525 -0.1953,0.309 -0.394,0.4633 -0.5979,0.4633 -0.1311,0.1857 -0.2051,0.2873 -0.2248,0.3074 -0.1283,0.1507 -0.2464,0.2263 -0.3514,0.2263 -0.1071,-0.0197 -0.1941,-0.0295 -0.2645,-0.0295 -0.0709,0 -0.1465,0.0196 -0.2268,0.0574 -0.0968,0.0398 -0.279,0.2366 -0.5486,0.5932 -0.2693,0.3499 -0.5617,0.5239 -0.8754,0.5239 -0.3401,0 -0.5896,-0.1512 -0.7506,-0.4519 -0.148,-0.2987 -0.2216,-0.6683 -0.2216,-1.1068 0.0803,-0.3566 0.1689,-0.6455 0.2641,-0.8675 0.0937,-0.2298 0.1858,-0.3463 0.2744,-0.3463 0.0196,0 0.0476,0.0196 0.0822,0.059 z m 5.3561,0.3121 c -0.0134,0.3499 -0.0216,0.6636 -0.0264,0.9411 -0.005,0.2779 -0.0181,0.5125 -0.0409,0.705 -0.0378,0.4136 -0.1185,0.7801 -0.2381,1.1001 -0.1201,0.3188 -0.2153,0.5305 -0.2842,0.6376 -0.0693,0.1051 -0.1267,0.1822 -0.1708,0.2314 -0.0512,0.0477 -0.0905,0.0642 -0.1185,0.0477 -0.0264,-0.0166 -0.0378,-0.0445 -0.0311,-0.0823 0,-0.01 0.0295,-0.1559 0.087,-0.4385 0.0575,-0.2806 0.0937,-0.555 0.1082,-0.8195 0.015,-0.2645 0.0166,-0.6392 0.007,-1.1217 -0.01,-0.483 0.002,-0.8525 0.0347,-1.1088 0.0196,-0.148 0.0507,-0.3023 0.0952,-0.4617 0.0461,-0.161 0.0984,-0.3168 0.1575,-0.4695 0.0594,-0.1527 0.12,-0.2976 0.1857,-0.4354 0.0642,-0.1381 0.1232,-0.2593 0.1776,-0.3664 0.044,-0.0673 0.0838,-0.0937 0.1149,-0.0787 0.0327,0.0149 0.046,0.0409 0.0441,0.0787 -0.006,0.0232 -0.0146,0.0724 -0.0229,0.148 -0.008,0.0756 -0.0149,0.1641 -0.0228,0.2692 -0.008,0.1035 -0.0165,0.2153 -0.0216,0.3334 -0.006,0.12 -0.013,0.235 -0.0181,0.3499 -0.005,0.1134 -0.008,0.2185 -0.0115,0.3153 -0.003,0.0956 -0.005,0.1708 -0.005,0.2251 z m 4.5823,2.5017 c 0.4141,0 0.8769,-0.0196 1.3914,-0.0574 0.5124,-0.0398 1.0033,-0.1102 1.4716,-0.2153 0.468,-0.1035 0.8935,-0.235 1.2729,-0.3944 0.381,-0.159 0.6503,-0.3039 0.8081,-0.4349 0.1594,-0.1315 0.2873,-0.2795 0.3826,-0.4436 0.0968,-0.1626 0.1594,-0.2448 0.1889,-0.2448 0.0378,0 0.0527,0.0543 0.0425,0.1641 -0.0197,0.1527 -0.0819,0.3597 -0.187,0.6195 -0.1381,0.335 -0.2759,0.5995 -0.414,0.7967 -0.1378,0.1968 -0.3055,0.366 -0.5011,0.5042 -0.279,0.1889 -0.5943,0.3613 -0.9474,0.5187 -0.3089,0.1248 -0.6455,0.2381 -1.0103,0.3417 -0.5585,0.1444 -1.1104,0.2479 -1.6539,0.3121 -0.5436,0.0641 -1.071,0.0968 -1.5799,0.0968 -0.59,0 -1.0431,-0.0244 -1.3568,-0.072 -0.5144,-0.0807 -0.8789,-0.235 -1.0973,-0.4617 -0.1956,-0.1775 -0.294,-0.4172 -0.294,-0.7227 0,-0.118 0.0165,-0.2889 0.0507,-0.5093 0.0331,-0.2216 0.0724,-0.4432 0.1185,-0.6652 0.0445,-0.22 0.0787,-0.366 0.1035,-0.4369 0.0228,-0.0704 0.0591,-0.1066 0.1067,-0.1066 0.0492,0 0.0787,0.0429 0.0921,0.1283 0.013,0.0854 0.0264,0.2184 0.0409,0.4023 0.015,0.1822 0.1527,0.3483 0.4157,0.4943 0.5171,0.248 1.3681,0.3763 2.5556,0.3861 z m -0.5156,4.4725 c 0,-0.1051 0.0838,-0.3271 0.2546,-0.6636 0.1689,-0.3369 0.2807,-0.5192 0.3314,-0.5436 0.1036,-0.046 0.25,0.0343 0.4405,0.2382 0.1905,0.2035 0.2924,0.3629 0.3054,0.4778 0,0.1511 -0.0803,0.3696 -0.2397,0.6569 -0.161,0.2873 -0.2759,0.4306 -0.3467,0.4306 -0.0296,0 -0.1232,-0.0543 -0.2842,-0.1661 -0.161,-0.1102 -0.2807,-0.1972 -0.3613,-0.261 -0.0674,-0.0594 -0.1,-0.1153 -0.1,-0.1692 z m 9.7644,-7.6756 c -0.007,0.189 -0.0165,0.4188 -0.0315,0.69 -0.0146,0.2712 -0.0228,0.4633 -0.0264,0.5751 -0.0161,0.379 -0.0555,0.6947 -0.1181,0.9509 -0.0625,0.2543 -0.12,0.4566 -0.1708,0.6077 -0.046,0.1445 -0.1066,0.3137 -0.1858,0.5074 -0.0787,0.1956 -0.1885,0.4006 -0.3314,0.6159 -0.1432,0.2169 -0.2861,0.3925 -0.4306,0.5275 -0.2247,0.192 -0.4632,0.2873 -0.7128,0.2837 -0.1314,-0.006 -0.2495,-0.0393 -0.3562,-0.1015 -0.0988,-0.0673 -0.1924,-0.148 -0.2794,-0.2448 -0.0772,-0.0642 -0.1248,-0.1051 -0.1429,-0.1248 -0.0689,-0.061 -0.102,-0.1248 -0.102,-0.1921 0,-0.0496 0.0248,-0.1051 0.0725,-0.1692 0.0476,-0.061 0.1019,-0.1299 0.1641,-0.207 0.0279,-0.0378 0.0673,-0.0953 0.1149,-0.1724 0.0477,-0.0772 0.0906,-0.1807 0.1268,-0.309 0.0378,-0.1279 0.0673,-0.294 0.0901,-0.4991 0.0181,-0.2086 0.0315,-0.3877 0.0378,-0.5357 l 0.0149,-0.4467 c 0.003,-0.1543 0.003,-0.3153 0,-0.4861 0.01,-0.4436 0.087,-0.923 0.2315,-1.4437 0.0988,-0.35 0.2598,-0.8231 0.4814,-1.4194 0.0145,-0.0393 0.031,-0.0653 0.0444,-0.0787 0.0146,-0.0145 0.026,-0.0228 0.0358,-0.0228 0.0331,0.003 0.0477,0.0952 0.0445,0.2743 -0.007,0.087 -0.0165,0.2267 -0.0295,0.4188 -0.0165,0.1952 -0.0264,0.322 -0.0295,0.3759 l -0.1578,1.8759 c -0.01,0.2251 -0.0378,0.4814 -0.0819,0.7703 -0.0476,0.279 -0.1169,0.5518 -0.207,0.8179 -0.1248,0.3877 -0.2878,0.7226 -0.4861,1.0005 0.01,0.0197 0.0476,0.0295 0.1149,0.0295 l 0.1838,0.01 c 0.2629,0.01 0.5274,-0.0906 0.7915,-0.3008 0.2645,-0.2101 0.4322,-0.4317 0.5046,-0.6636 0.072,-0.233 0.1114,-0.4679 0.1181,-0.7061 0.0327,-0.542 0.0575,-1.0135 0.0771,-1.4158 0.0197,-0.4042 0.0492,-0.7293 0.0921,-0.9808 0.041,-0.2495 0.1083,-0.5223 0.1988,-0.8144 0.0917,-0.294 0.2346,-0.6734 0.4302,-1.1382 0.0295,-0.0477 0.0575,-0.0673 0.0823,-0.0575 0.0228,0.01 0.0114,0.1968 -0.0331,0.5648 -0.046,0.368 -0.0917,0.9116 -0.1393,1.6342 z m 2.3517,0.984 c 0,-0.1149 -0.0492,-0.2086 -0.1491,-0.2794 -0.0988,-0.0705 -0.2185,-0.1051 -0.3566,-0.1051 -0.1248,0 -0.2429,0.0543 -0.3531,0.1645 -0.1102,0.1082 -0.1661,0.2066 -0.1661,0.2921 0,0.1003 0.0512,0.1708 0.1547,0.2153 0.1015,0.0429 0.2003,0.0641 0.2924,0.0641 0.187,0 0.3299,-0.0378 0.4287,-0.1149 0.0999,-0.0772 0.1491,-0.1563 0.1491,-0.2366 z m 0.6211,0.8179 c -0.1791,0.115 -0.3333,0.1988 -0.4601,0.2511 -0.1263,0.0512 -0.2298,0.0906 -0.3101,0.1201 -0.0807,0.0279 -0.1398,0.0575 -0.1776,0.087 -0.0393,0.0279 -0.1165,0.0921 -0.2365,0.192 -0.1988,0.2189 -0.4156,0.3814 -0.6522,0.4881 -0.2346,0.1083 -0.4467,0.161 -0.6321,0.161 -0.3468,0 -0.6274,-0.1429 -0.8443,-0.4286 -0.2169,-0.2842 -0.3251,-0.6636 -0.3251,-1.1352 0.1248,-0.8049 0.3318,-1.1906 0.6207,-1.1544 0,0.4334 0.1035,0.7569 0.309,0.9722 0.1787,0.1889 0.3613,0.2743 0.5483,0.2546 0.0181,0 0.0429,-0.0444 0.0708,-0.1346 0.0295,-0.0905 0.0673,-0.1972 0.1165,-0.3219 l 0.2692,-0.5637 c 0.2976,-0.5518 0.5834,-0.8277 0.8561,-0.8277 0.1807,0 0.3169,0.074 0.409,0.2236 0.0932,0.1491 0.1393,0.3365 0.1393,0.5616 0,0.1693 -0.01,0.3169 -0.0279,0.4452 -0.0197,0.1263 -0.0394,0.2381 -0.0575,0.3334 0.0279,0.0196 0.0791,0.0145 0.1511,-0.015 0.0725,-0.0279 0.1496,-0.0673 0.2334,-0.1149 0.0197,0.0295 0.0362,0.0708 0.0508,0.1232 0.015,0.0527 0.0213,0.1118 0.0213,0.1759 0,0.0772 -0.005,0.1378 -0.0146,0.1823 -0.01,0.0444 -0.0279,0.0869 -0.0575,0.1247 z m -2.4781,-5.6808 c 0,-0.0638 0.0969,-0.2763 0.2925,-0.6353 0.1948,-0.3581 0.318,-0.5518 0.366,-0.5719 0.0799,-0.0338 0.1996,0.026 0.3566,0.1776 0.1563,0.1503 0.2759,0.2841 0.3562,0.3991 0.0953,-0.1579 0.202,-0.3342 0.3189,-0.529 0.1172,-0.1957 0.1971,-0.298 0.2381,-0.2988 0.1196,-0.002 0.2621,0.0882 0.4286,0.263 0.1665,0.1747 0.2602,0.3381 0.2645,0.4923 0.005,0.1839 -0.0901,0.3984 -0.2692,0.6507 -0.174,0.2452 -0.2992,0.3696 -0.3794,0.3696 -0.0544,0 -0.1524,-0.0693 -0.2909,-0.2087 -0.139,-0.1401 -0.2629,-0.2479 -0.3696,-0.3251 -0.2594,0.5223 -0.4664,0.7849 -0.6207,0.7849 -0.0378,0 -0.0921,-0.0315 -0.1626,-0.0917 -0.0669,-0.0575 -0.1732,-0.1445 -0.3156,-0.2598 -0.1429,-0.1157 -0.2134,-0.187 -0.2134,-0.2169 z m 2.4931,5.0763 c 0.1149,-0.0803 0.2133,-0.1823 0.294,-0.3039 0.0854,-0.1181 0.1299,-0.2381 0.1299,-0.3598 v -0.4778 c 0,-0.1149 0.0197,-0.2417 0.0575,-0.3794 0.0673,-0.1921 0.1377,-0.3696 0.2117,-0.529 l 0.294,-0.7128 c 0.007,-0.0343 0.0296,-0.074 0.0725,-0.1149 0.0177,0 0.0279,0.0492 0.0279,0.1495 l -0.015,0.5141 -0.0279,0.6207 c 0,0.2153 -0.0445,0.4601 -0.1299,0.736 -0.0803,0.2728 -0.1869,0.5156 -0.3184,0.7274 -0.1956,0.3239 -0.3944,0.5683 -0.5963,0.736 -0.0508,-0.1035 -0.0803,-0.2055 -0.087,-0.3106 -0.007,-0.1035 0.0228,-0.2034 0.087,-0.2955 z m 0.4668,-5.1172 c 0,-0.1067 0.0862,-0.3267 0.2562,-0.6636 0.1697,-0.3362 0.2811,-0.5204 0.3318,-0.5436 0.1016,-0.0468 0.25,0.0346 0.4405,0.2381 0.1901,0.2035 0.2999,0.3625 0.3054,0.4779 0.007,0.1507 -0.0819,0.3692 -0.2417,0.6569 -0.1598,0.2869 -0.2759,0.4306 -0.3448,0.4306 -0.0295,0 -0.1243,-0.0555 -0.2841,-0.1661 -0.1602,-0.1106 -0.2819,-0.1964 -0.3614,-0.2626 -0.0677,-0.0566 -0.1019,-0.1133 -0.1019,-0.1676 z m 2.3766,4.6212 c -0.0134,0.3499 -0.0217,0.6636 -0.0264,0.9411 -0.005,0.2779 -0.0181,0.5125 -0.041,0.705 -0.0377,0.4136 -0.1184,0.7801 -0.2381,1.1001 -0.12,0.3188 -0.2153,0.5305 -0.2842,0.6376 -0.0692,0.1051 -0.1267,0.1822 -0.1708,0.2314 -0.0512,0.0477 -0.0905,0.0642 -0.1185,0.0477 -0.0263,-0.0166 -0.0377,-0.0445 -0.0311,-0.0823 0,-0.01 0.0296,-0.1559 0.087,-0.4385 0.0575,-0.2806 0.0937,-0.555 0.1083,-0.8195 0.0149,-0.2645 0.0165,-0.6392 0.007,-1.1217 -0.01,-0.483 0.002,-0.8525 0.0346,-1.1088 0.0197,-0.148 0.0508,-0.3023 0.0953,-0.4617 0.046,-0.161 0.0984,-0.3168 0.1574,-0.4695 0.0594,-0.1527 0.12,-0.2976 0.1858,-0.4354 0.0641,-0.1381 0.1232,-0.2593 0.1775,-0.3664 0.0441,-0.0673 0.0838,-0.0937 0.1149,-0.0787 0.0327,0.0149 0.0461,0.0409 0.0441,0.0787 -0.006,0.0232 -0.0146,0.0724 -0.0228,0.148 -0.008,0.0756 -0.015,0.1641 -0.0229,0.2692 -0.008,0.1035 -0.0165,0.2153 -0.0216,0.3334 -0.006,0.12 -0.013,0.235 -0.0181,0.3499 -0.005,0.1134 -0.008,0.2185 -0.0114,0.3153 -0.003,0.0956 -0.005,0.1708 -0.005,0.2251 z"
         style="fill:#1b1918;fill-rule:evenodd"
         id="path119" />
    </g>
    <path
       d="m 201.1083,304.0072 -1.0786,1.3152 c 0,0 -0.0132,0.036 -0.0156,0.0778 -0.003,0.0419 1.002,1.3439 1.002,1.3439 l 17.6485,-0.01 c 0,0 0.0702,-0.005 0.1178,0.0287 0.0476,0.0332 0.1511,0.148 0.1511,0.148 l 8.2925,8.3172 0.9053,-0.9205 -9.5338,-9.5174 -15.7632,0.007 c 0,0 -0.1202,-0.002 -0.2393,-0.0567 -0.119,-0.0553 -0.4346,-0.2186 -0.4346,-0.2186 z"
       style="fill:#ffffff;fill-rule:evenodd"
       id="path122" />
  </g>
</svg>
