<svg width="88" height="100" viewBox="0 0 88 100" fill="none" xmlns="http://www.w3.org/2000/svg">
<g clip-path="url(#clip0_32_75)">
<path opacity="0.4" d="M0.449951 37.5H87.95V90.625C87.95 95.8008 83.7507 100 78.575 100H9.82495C4.64917 100 0.449951 95.8008 0.449951 90.625V37.5Z" fill="#004355"/>
<path d="M31.7 6.25C31.7 2.79297 28.907 0 25.45 0C21.9929 0 19.2 2.79297 19.2 6.25V12.5H9.82495C4.64917 12.5 0.449951 16.6992 0.449951 21.875V37.5H87.95V21.875C87.95 16.6992 83.7507 12.5 78.575 12.5H69.2V6.25C69.2 2.79297 66.407 0 62.95 0C59.4929 0 56.7 2.79297 56.7 6.25V12.5H31.7V6.25Z" fill="#004355"/>
</g>
<defs>
<clipPath id="clip0_32_75">
<rect width="87.5" height="100" fill="white" transform="translate(0.449951)"/>
</clipPath>
</defs>
</svg>
