<svg width="129" height="100" viewBox="0 0 129 100" fill="none" xmlns="http://www.w3.org/2000/svg">
<g clip-path="url(#clip0_32_50)">
<path opacity="0.4" d="M31.144 74.9609C39.2093 86.3086 52.6116 93.75 67.7862 93.75C85.5895 93.75 100.963 83.5156 108.132 68.7109C103.373 68.3203 99.3701 65.3516 97.538 61.25C92.9179 72.9492 81.3478 81.25 67.7862 81.25C50.182 81.25 35.9235 67.2656 35.9235 50C35.9235 49.9609 35.9235 49.9219 35.9235 49.8828C34.4498 50.8203 32.8368 51.5625 31.144 52.1094V74.9609ZM44.9645 28.2031C50.7595 22.3633 58.8447 18.75 67.7862 18.75C80.3919 18.75 91.3049 25.9375 96.4627 36.3672V31.25C96.4627 26.3672 97.319 22.1289 98.713 18.457C90.6875 10.8984 79.7945 6.25 67.7862 6.25C58.0482 6.25 49.027 9.31641 41.6787 14.5117L44.9247 28.0273C44.9446 28.0859 44.9446 28.125 44.9645 28.1836V28.2031ZM93.2764 50C93.2764 43.3696 90.5908 37.0107 85.8105 32.3223C81.0302 27.6339 74.5466 25 67.7862 25C61.0258 25 54.5422 27.6339 49.7619 32.3223C44.9816 37.0107 42.296 43.3696 42.296 50C42.296 56.6304 44.9816 62.9893 49.7619 67.6777C54.5422 72.3661 61.0258 75 67.7862 75C74.5466 75 81.0302 72.3661 85.8105 67.6777C90.5908 62.9893 93.2764 56.6304 93.2764 50Z" fill="#004355"/>
<path d="M10.4333 4.5898C10.3935 3.80855 9.77617 3.18355 8.9796 3.12495C8.18303 3.06636 7.46612 3.57417 7.28689 4.31636L1.25288 29.4726C0.993997 30.5273 0.874512 31.621 0.874512 32.7148C0.874512 40.5078 7.28689 46.8164 15.2127 46.875V92.1875C15.2127 94.7851 17.3436 96.875 19.9922 96.875C22.6407 96.875 24.7716 94.7851 24.7716 92.1875V46.875C32.6974 46.8164 39.1098 40.5078 39.1098 32.7148C39.1098 31.621 38.9903 30.5273 38.7314 29.4726L32.6974 4.33589C32.5182 3.57417 31.8013 3.06636 31.0047 3.14449C30.2082 3.22261 29.5908 3.82808 29.551 4.60933L28.0574 29.6875H24.5923L21.5654 4.51167C21.4658 3.73042 20.7887 3.12495 19.9922 3.12495C19.1956 3.12495 18.4986 3.71089 18.4189 4.51167L15.392 29.6875H11.9269L10.4333 4.5898ZM102.835 31.25V56.25C102.835 59.707 105.683 62.5 109.208 62.5H118.767V92.1875C118.767 94.7851 120.897 96.875 123.546 96.875C126.195 96.875 128.325 94.7851 128.325 92.1875V62.5V42.1875V7.20699C128.325 4.96089 126.473 3.12495 124.163 3.12495C123.745 3.12495 123.347 3.18355 122.949 3.32027C119.603 4.5312 102.835 11.5625 102.835 31.25Z" fill="#004355"/>
</g>
<defs>
<clipPath id="clip0_32_50">
<rect width="127.451" height="100" fill="white" transform="translate(0.874512)"/>
</clipPath>
</defs>
</svg>
