<svg width="126" height="100" viewBox="0 0 126 100" fill="none" xmlns="http://www.w3.org/2000/svg">
<g clip-path="url(#clip0_32_68)">
<path opacity="0.4" d="M13.3999 73.0077C13.3999 75.996 15.5093 78.5546 18.4194 79.1406L60.2749 87.4999V6.24992L20.5483 0.429612C16.7788 -0.136795 13.3999 2.79289 13.3999 6.60149V73.0077ZM113.4 6.60149C113.4 2.79289 110.021 -0.136795 106.251 0.41008L66.5249 6.24992V87.4999L108.38 79.121C111.31 78.5351 113.4 75.9765 113.4 72.9882V6.60149Z" fill="#004355"/>
<path d="M18.4194 79.1212L63.3999 88.1251L108.38 79.1212C111.31 78.5352 113.4 75.9766 113.4 72.9884V5.62507L118.419 4.62897C122.287 3.84772 125.9 6.79694 125.9 10.7423V82.3829C125.9 85.3712 123.791 87.9298 120.88 88.5157L63.3999 100L5.91943 88.4962C3.00928 87.9298 0.899902 85.3516 0.899902 82.3829V10.7423C0.899902 6.79694 4.51318 3.84772 8.38037 4.62897L13.3999 5.62507V73.0079C13.3999 75.9962 15.5093 78.5548 18.4194 79.1407V79.1212Z" fill="#004355"/>
</g>
<defs>
<clipPath id="clip0_32_68">
<rect width="125" height="100" fill="white" transform="translate(0.899902)"/>
</clipPath>
</defs>
</svg>
