<svg width="126" height="100" viewBox="0 0 126 100" fill="none" xmlns="http://www.w3.org/2000/svg">
<g clip-path="url(#clip0_32_86)">
<path opacity="0.4" d="M63.8939 27.3048C65.515 26.6993 66.3353 24.9024 65.7298 23.2813C65.1243 21.6602 63.3275 20.8399 61.7064 21.4454L30.554 33.1251C18.347 37.7149 10.1439 49.1798 9.69466 62.1485C9.67513 62.2657 9.67513 62.3829 9.67513 62.5001C9.67513 68.0469 7.56575 73.7891 5.31966 78.2813C4.05013 80.8204 2.60481 83.3204 0.925125 85.6251C0.300125 86.4649 0.124344 87.5587 0.475907 88.5547C0.827469 89.5508 1.64778 90.293 2.66341 90.5469L15.1634 93.6719C15.9837 93.8868 16.8626 93.7305 17.5853 93.2813C18.3079 92.8321 18.8158 92.0899 18.972 91.2501C20.6517 82.8907 19.8118 75.3907 18.5618 70.0196C17.9368 67.2852 17.097 64.4922 15.9447 61.9141C16.4915 51.6602 23.054 42.6368 32.7415 39.004L63.8743 27.3243L63.8939 27.3048Z" fill="#004355"/>
<path d="M62.8 6.25C61.218 6.25 59.6555 6.52344 58.1711 7.05078L3.38599 26.8359C1.53052 27.5195 0.300049 29.2773 0.300049 31.25C0.300049 33.2227 1.53052 34.9805 3.38599 35.6641L18.5032 41.1133C21.7844 37.6367 25.886 34.8828 30.554 33.125L61.6868 21.4453C63.3079 20.8398 65.1047 21.6602 65.7102 23.2812C66.3157 24.9023 65.4954 26.6992 63.8743 27.3047L32.761 38.9844C29.9094 40.0586 27.3313 41.6016 25.0852 43.4961L58.1907 55.4492C59.675 55.9766 61.2375 56.25 62.8196 56.25C64.4016 56.25 65.9641 55.9766 67.4485 55.4492L122.214 35.6641C124.07 35 125.3 33.2227 125.3 31.25C125.3 29.2773 124.07 27.5195 122.214 26.8359L67.429 7.05078C65.9446 6.52344 64.3821 6.25 62.8 6.25ZM25.3 79.6875C25.3 86.582 42.0969 93.75 62.8 93.75C83.5032 93.75 100.3 86.582 100.3 79.6875L97.3118 51.2891L69.5383 61.3281C67.3704 62.1094 65.0852 62.5 62.8 62.5C60.5149 62.5 58.2102 62.1094 56.0618 61.3281L28.2883 51.2891L25.3 79.6875Z" fill="#004355"/>
</g>
<defs>
<clipPath id="clip0_32_86">
<rect width="125" height="100" fill="white" transform="translate(0.300049)"/>
</clipPath>
</defs>
</svg>
