<svg width="126" height="100" viewBox="0 0 126 100" fill="none" xmlns="http://www.w3.org/2000/svg">
<g clip-path="url(#clip0_32_57)">
<path opacity="0.4" d="M63 9.375C63 4.19922 67.2145 0 72.4091 0H116.318C121.513 0 125.727 4.19922 125.727 9.375V90.625C125.727 95.8008 121.513 100 116.318 100H78.6818C80.642 97.3828 81.8182 94.1406 81.8182 90.625V68.75H84.9545C86.6795 68.75 88.0909 67.3438 88.0909 65.625V59.375C88.0909 57.6562 86.6795 56.25 84.9545 56.25H81.8182V54.1211C81.8182 52.7148 81.6222 51.3281 81.2693 50H84.9545C86.6795 50 88.0909 48.5938 88.0909 46.875V40.625C88.0909 38.9062 86.6795 37.5 84.9545 37.5H78.6818C76.9568 37.5 75.5455 38.9062 75.5455 40.625V41.5234L63 30.0586V9.375ZM103.773 37.5C102.048 37.5 100.636 38.9062 100.636 40.625V46.875C100.636 48.5938 102.048 50 103.773 50H110.045C111.77 50 113.182 48.5938 113.182 46.875V40.625C113.182 38.9062 111.77 37.5 110.045 37.5H103.773ZM100.636 59.375V65.625C100.636 67.3438 102.048 68.75 103.773 68.75H110.045C111.77 68.75 113.182 67.3438 113.182 65.625V59.375C113.182 57.6562 111.77 56.25 110.045 56.25H103.773C102.048 56.25 100.636 57.6562 100.636 59.375ZM75.5455 21.875V28.125C75.5455 29.8438 76.9568 31.25 78.6818 31.25H84.9545C86.6795 31.25 88.0909 29.8438 88.0909 28.125V21.875C88.0909 20.1562 86.6795 18.75 84.9545 18.75H78.6818C76.9568 18.75 75.5455 20.1562 75.5455 21.875ZM103.773 18.75C102.048 18.75 100.636 20.1562 100.636 21.875V28.125C100.636 29.8438 102.048 31.25 103.773 31.25H110.045C111.77 31.25 113.182 29.8438 113.182 28.125V21.875C113.182 20.1562 111.77 18.75 110.045 18.75H103.773Z" fill="#004355"/>
<path d="M0.272705 90.625V54.1211C0.272705 51.4844 1.37043 48.9844 3.33066 47.207L31.5579 21.4258C35.1647 18.1445 40.673 18.1445 44.2798 21.4258L72.5071 47.207C74.4477 48.9844 75.565 51.4844 75.565 54.1211V90.625C75.565 95.8008 71.3505 100 66.1559 100H9.6818C4.48719 100 0.272705 95.8008 0.272705 90.625ZM33.2045 53.125C30.5974 53.125 28.5 55.2148 28.5 57.8125V67.1875C28.5 69.7852 30.5974 71.875 33.2045 71.875H42.6136C45.2207 71.875 47.3182 69.7852 47.3182 67.1875V57.8125C47.3182 55.2148 45.2207 53.125 42.6136 53.125H33.2045Z" fill="#004355"/>
</g>
<defs>
<clipPath id="clip0_32_57">
<rect width="125.455" height="100" fill="white" transform="translate(0.272705)"/>
</clipPath>
</defs>
</svg>
